<svg width="158" height="99" viewBox="0 0 158 99" fill="none" xmlns="http://www.w3.org/2000/svg">
<g opacity="0.5">
<path d="M93.8624 20.694L78.5517 49.2315C78.1374 50.0146 77.5716 50.7074 76.8871 51.2697C76.2026 51.8321 75.4131 52.2527 74.5645 52.507C73.716 52.7614 72.8253 52.8445 71.9443 52.7515C71.0634 52.6584 70.2097 52.3911 69.433 51.9651C66.1698 50.1675 64.9618 46.0354 66.7342 42.7302L82.0402 14.1926C82.4544 13.4096 83.0203 12.7167 83.7048 12.1544C84.3893 11.5921 85.1788 11.1715 86.0273 10.9171C86.8759 10.6627 87.7666 10.5797 88.6475 10.6727C89.5285 10.7657 90.3821 11.033 91.1588 11.4591C94.4269 13.2555 95.6349 17.39 93.8624 20.694Z" fill="url(#paint0_linear_229_989)"/>
<path d="M61.2253 17.4091C59.5721 18.0746 58.2495 19.3674 57.5466 21.0051C56.8437 22.6429 56.8177 24.4922 57.4743 26.149L66.4324 48.7437C66.754 49.5695 67.2367 50.3231 67.8525 50.9606C68.4682 51.598 69.2046 52.1066 70.0187 52.4567C70.8329 52.8068 71.7086 52.9914 72.5948 52.9998C73.481 53.0082 74.3601 52.8401 75.1807 52.5055C78.6285 51.0974 80.3027 47.1283 78.9209 43.6373L70.0156 21.1744C69.6881 20.3485 69.2006 19.5954 68.5812 18.9584C67.9617 18.3215 67.2225 17.8132 66.4059 17.4629C65.5894 17.1125 64.7117 16.927 63.8233 16.9169C62.9348 16.9069 62.0531 17.0725 61.2289 17.4043L61.2253 17.4091Z" fill="url(#paint1_linear_229_989)"/>
<path d="M69.1754 11.9807C69.9206 10.1817 69.0663 8.11929 67.2673 7.37414C65.4683 6.62898 63.4059 7.48327 62.6607 9.28224C61.9156 11.0812 62.7699 13.1436 64.5688 13.8888C66.3678 14.6339 68.4302 13.7797 69.1754 11.9807Z" fill="#5EFF8B"/>
<path d="M87.9933 5.95577C88.7384 4.1568 87.8841 2.09438 86.0852 1.34922C84.2862 0.604061 82.2238 1.45835 81.4786 3.25732C80.7335 5.05629 81.5877 7.11872 83.3867 7.86388C85.1857 8.60903 87.2481 7.75475 87.9933 5.95577Z" fill="#00DBFF"/>
<path d="M31 67.0441V65.5553C31 61.9552 33.5322 60.3104 37.2427 60.3104C40.9533 60.3104 43.4873 61.9552 43.4873 65.5553V67.0441C43.4873 70.6425 40.9533 72.2645 37.2427 72.2645C33.5322 72.2645 31 70.6425 31 67.0441ZM35.3997 80.8641C32.9114 80.8641 32.2433 79.9978 32.2433 77.62V75.2421C32.2433 73.7323 33.2954 73.0431 34.5229 73.0431C35.7504 73.0431 36.7465 73.7446 36.7465 75.2421V76.8642C36.7465 77.3534 36.857 77.4201 37.3462 77.4201H48.9882C50.3438 77.4201 50.8558 78.2425 50.8558 79.1316C50.8558 80.0206 50.3297 80.8641 48.9882 80.8641H35.3997ZM39.1314 67.2212V65.3765C39.1314 64.149 38.3545 63.5773 37.2427 63.5773C36.131 63.5773 35.3541 64.1542 35.3541 65.3765V67.2212C35.3541 68.4663 36.1327 68.9994 37.2427 68.9994C38.3528 68.9994 39.1314 68.4663 39.1314 67.2212ZM45.7529 62.199C45.7529 60.7558 46.7542 60 47.9308 60C49.1075 60 50.1088 60.7768 50.1088 62.199V65.5553H50.7979C52.1517 65.5553 52.5515 66.6075 52.5515 67.4843C52.5515 68.3611 52.1289 69.4132 50.7979 69.4132H50.1088V75.7016H45.7529V62.199Z" fill="#B4B4B4"/>
<path d="M57.3528 62.4271V62.2938C57.3528 60.8716 58.5085 60.2053 59.6851 60.2281C60.8618 60.2509 61.8403 60.9611 61.8403 62.2938V62.4271C61.8362 63.052 61.7846 63.6758 61.686 64.2929C64.8845 64.6927 67.0186 66.783 66.7959 71.181H62.4628C62.6627 69.1819 61.9963 67.9824 60.5742 67.6931C59.2853 70.0043 57.1529 71.3598 55.0416 71.5808C53.886 71.714 52.9759 71.0547 52.797 70.2708C52.5095 69.2713 52.9531 68.2928 53.8492 68.0263C56.1096 67.3547 57.3528 65.5555 57.3528 62.4271ZM57.3967 80.8695C54.7084 80.8695 54.2192 80.0699 54.2192 77.4921V75.6929C54.2192 73.1152 54.7084 72.3155 57.3967 72.3155H69.8629C72.5512 72.3155 73.0404 73.1152 73.0404 75.6929V80.8695H57.3967ZM59.131 77.7359H68.6617V76.0033C68.6617 75.5141 68.5512 75.4264 68.1076 75.4264H59.131C58.6856 75.4264 58.6049 75.5141 58.6049 76.0033V77.1361C58.5961 77.664 58.6856 77.7306 59.131 77.7306V77.7359ZM68.4407 62.2044C68.4407 60.7612 69.5069 60.0054 70.6836 60.0054C71.8602 60.0054 72.9282 60.7822 72.9282 62.2044V71.4984H68.4407V62.2044Z" fill="#B4B4B4"/>
<path d="M93.5716 60.2437C94.4379 60.2437 94.7991 60.9328 94.7991 61.5115C94.7991 62.0902 94.4203 62.7776 93.5716 62.7776H80.7284C80.418 62.7776 80.3057 62.8653 80.3057 63.1546V63.5772H93.4383C94.3274 63.5772 94.6658 64.1541 94.6658 64.7328C94.6658 65.3115 94.3327 65.8884 93.4383 65.8884H80.3093V66.3093C80.3093 66.6214 80.4215 66.6881 80.7319 66.6881H93.8417C94.7079 66.6881 95.0411 67.3772 95.0411 67.9156C95.0411 68.5381 94.6904 69.1817 93.8417 69.1817H87.5761V70.1146H93.9311C95.2638 70.1146 95.753 70.8475 95.753 71.7366C95.753 72.6257 95.241 73.3587 93.9311 73.3587H76.7775C75.4659 73.3587 74.9556 72.6257 74.9556 71.7366C74.9556 70.8475 75.4431 70.1146 76.7775 70.1146H83.0431V69.1817H78.3803C76.5583 69.1817 75.892 68.4486 75.892 66.7599V62.6934C75.892 60.9819 76.5583 60.2489 78.3803 60.2489L93.5716 60.2437ZM77.6842 77.3972C76.4847 77.3972 75.8183 76.7536 75.8183 75.7979C75.8183 74.8422 76.4847 74.2425 77.6842 74.2425H91.6374C94.3274 74.2425 94.8149 74.865 94.8149 77.4428V80.864H90.3713V77.8829C90.3713 77.5322 90.238 77.3937 89.8838 77.3937L77.6842 77.3972Z" fill="#B4B4B4"/>
<path d="M114.62 60C115.486 60 115.847 60.6892 115.847 61.2678C115.847 61.8465 115.47 62.5339 114.62 62.5339H101.776C101.466 62.5339 101.354 62.6216 101.354 62.9109V63.3336H114.486C115.375 63.3336 115.714 63.9105 115.714 64.4892C115.714 65.0678 115.381 65.6448 114.486 65.6448H101.354V66.0656C101.354 66.3778 101.466 66.4444 101.776 66.4444H114.886C115.752 66.4444 116.086 67.1336 116.086 67.6719C116.086 68.2944 115.735 68.938 114.886 68.938H108.621V69.8709H114.976C116.308 69.8709 116.797 70.6039 116.797 71.493C116.797 72.382 116.285 73.115 114.976 73.115H97.822C96.5103 73.115 96 72.382 96 71.493C96 70.6039 96.4893 69.8709 97.822 69.8709H104.088V68.938H99.4212C97.5993 68.938 96.9329 68.205 96.9329 66.5163V62.4497C96.9329 60.7383 97.5993 60.0052 99.4212 60.0052L114.62 60ZM98.7321 77.1535C97.5326 77.1535 96.8663 76.51 96.8663 75.5543C96.8663 74.5986 97.5326 73.9988 98.7321 73.9988H112.687C115.375 73.9988 115.865 74.6214 115.865 77.1991V80.6204H111.421V77.6393C111.421 77.2886 111.286 77.15 110.932 77.15L98.7321 77.1535Z" fill="#B4B4B4"/>
<path d="M9.98438 94.5508H5.69531V97.9961H4.60547V94.5508H0.375V93.6719H9.98438V94.5508ZM1.57031 87.918H2.67188V89.2891H7.66406V87.918H8.77734V92.4766H1.57031V87.918ZM7.66406 91.5859V90.1797H2.67188V91.5859H7.66406ZM20.4961 89.8984H19.0078V91.2344H20.4961V92.1602H19.0078V93.6953H17.8945V87.4961H19.0078V88.9844H20.4961V89.8984ZM10.9219 90.6016C10.918 90.1172 11.0352 89.6855 11.2734 89.3066C11.5156 88.9277 11.8496 88.6328 12.2754 88.4219C12.7012 88.2109 13.1797 88.1055 13.7109 88.1055C14.2422 88.1055 14.7188 88.2109 15.1406 88.4219C15.5664 88.6328 15.9004 88.9277 16.1426 89.3066C16.3848 89.6855 16.5078 90.1172 16.5117 90.6016C16.5078 91.082 16.3848 91.5117 16.1426 91.8906C15.9004 92.2695 15.5664 92.5664 15.1406 92.7812C14.7188 92.9922 14.2422 93.0977 13.7109 93.0977C13.1797 93.0977 12.7012 92.9922 12.2754 92.7812C11.8496 92.5664 11.5156 92.2695 11.2734 91.8906C11.0352 91.5117 10.918 91.082 10.9219 90.6016ZM12.0117 90.6016C12.0078 90.9062 12.0781 91.1758 12.2227 91.4102C12.3711 91.6445 12.5742 91.8281 12.832 91.9609C13.0898 92.0898 13.3828 92.1562 13.7109 92.1602C14.0391 92.1562 14.332 92.0898 14.5898 91.9609C14.8477 91.8281 15.0508 91.6445 15.1992 91.4102C15.3477 91.1758 15.4219 90.9062 15.4219 90.6016C15.4219 90.2969 15.3477 90.0273 15.1992 89.793C15.0508 89.5547 14.8457 89.3711 14.584 89.2422C14.3262 89.1094 14.0352 89.043 13.7109 89.043C13.3867 89.043 13.0938 89.1094 12.832 89.2422C12.5742 89.3711 12.3711 89.5547 12.2227 89.793C12.0781 90.0273 12.0078 90.2969 12.0117 90.6016ZM12.0938 95.9805C12.0938 95.5664 12.2363 95.209 12.5215 94.9082C12.8066 94.6074 13.2129 94.377 13.7402 94.2168C14.2715 94.0566 14.8984 93.9766 15.6211 93.9766C16.332 93.9766 16.9492 94.0566 17.4727 94.2168C17.9961 94.377 18.3984 94.6074 18.6797 94.9082C18.9609 95.209 19.1016 95.5664 19.1016 95.9805C19.1016 96.3945 18.9609 96.752 18.6797 97.0527C18.3984 97.3535 17.9961 97.582 17.4727 97.7383C16.9492 97.8945 16.332 97.9727 15.6211 97.9727C14.9023 97.9727 14.2773 97.8945 13.7461 97.7383C13.2148 97.582 12.8066 97.3535 12.5215 97.0527C12.2363 96.752 12.0938 96.3945 12.0938 95.9805ZM13.207 95.9805C13.2031 96.332 13.4102 96.6035 13.8281 96.7949C14.2461 96.9863 14.832 97.082 15.5859 97.082C16.3594 97.082 16.957 96.9883 17.3789 96.8008C17.8047 96.6094 18.0156 96.3359 18.0117 95.9805C18.0156 95.6328 17.8086 95.3633 17.3906 95.1719C16.9766 94.9766 16.3965 94.8789 15.6504 94.8789C14.877 94.8789 14.2754 94.9746 13.8457 95.166C13.416 95.3574 13.2031 95.6289 13.207 95.9805ZM29.3086 91.6797H30.9375V92.6055H29.3086V97.9844H28.1953V87.4961H29.3086V91.6797ZM21.1406 95.1836C22.4531 94.5273 23.4668 93.7266 24.1816 92.7812C24.9004 91.8359 25.3164 90.75 25.4297 89.5234H21.668V88.5977H26.5664C26.5586 90.1992 26.1699 91.6387 25.4004 92.916C24.6309 94.1895 23.418 95.2344 21.7617 96.0508L21.1406 95.1836ZM40.2188 88.8086H37.0254C37.0645 89.1523 37.2441 89.4727 37.5645 89.7695C37.8848 90.0664 38.3066 90.3184 38.8301 90.5254C39.3574 90.7285 39.9414 90.8633 40.582 90.9297L40.1719 91.8086C39.5664 91.7383 39.0039 91.6094 38.4844 91.4219C37.9648 91.2305 37.5137 90.9902 37.1309 90.7012C36.752 90.4082 36.4688 90.0781 36.2812 89.7109C36.0938 90.0781 35.8105 90.4082 35.4316 90.7012C35.0527 90.9902 34.6035 91.2305 34.084 91.4219C33.5684 91.6094 33.0078 91.7383 32.4023 91.8086L32.0039 90.9297C32.6367 90.8633 33.2148 90.7285 33.7383 90.5254C34.2656 90.3184 34.6875 90.0664 35.0039 89.7695C35.3242 89.4688 35.502 89.1484 35.5371 88.8086H32.3789V87.9062H40.2188V88.8086ZM31.5 92.7227H35.7305V91.1992H36.832V92.7227H41.0977V93.625H31.5V92.7227ZM32.5664 94.5625H39.9023V97.9961H38.7773V95.4531H32.5664V94.5625ZM46.6523 87.6719C47.4414 87.6719 48.1152 87.7402 48.6738 87.877C49.2324 88.0137 49.6602 88.2188 49.957 88.4922C50.2539 88.7617 50.4023 89.0898 50.4023 89.4766C50.4023 89.8672 50.2539 90.1992 49.957 90.4727C49.6602 90.7422 49.2324 90.9473 48.6738 91.0879C48.1152 91.2246 47.4414 91.293 46.6523 91.293C45.8633 91.293 45.1875 91.2246 44.625 91.0879C44.0664 90.9473 43.6387 90.7422 43.3418 90.4727C43.0488 90.1992 42.9023 89.8672 42.9023 89.4766C42.9023 89.0898 43.0488 88.7617 43.3418 88.4922C43.6387 88.2188 44.0664 88.0137 44.625 87.877C45.1875 87.7402 45.8633 87.6719 46.6523 87.6719ZM41.8711 91.9375H51.4453V92.8281H41.8711V91.9375ZM43.0195 93.6367H50.2383V96.0977H44.1211V97.0352H50.5312V97.8906H43.0312V95.2891H49.1367V94.4688H43.0195V93.6367ZM44.0625 89.4766C44.0586 89.8008 44.2793 90.0469 44.7246 90.2148C45.1699 90.3789 45.8125 90.4609 46.6523 90.4609C47.5 90.4609 48.1465 90.3789 48.5918 90.2148C49.0371 90.0469 49.2578 89.8008 49.2539 89.4766C49.2578 89.1641 49.0332 88.9219 48.5801 88.75C48.1309 88.5781 47.4883 88.4922 46.6523 88.4922C45.8203 88.4922 45.1797 88.5781 44.7305 88.75C44.2812 88.9219 44.0586 89.1641 44.0625 89.4766ZM58.6172 87.9766C59.1406 87.9766 59.6094 88.0684 60.0234 88.252C60.4375 88.4316 60.7617 88.6875 60.9961 89.0195C61.2305 89.3516 61.3477 89.7305 61.3477 90.1562C61.3477 90.5781 61.2305 90.9551 60.9961 91.2871C60.7617 91.6191 60.4375 91.877 60.0234 92.0605C59.6094 92.2402 59.1406 92.3281 58.6172 92.3242C58.0977 92.3281 57.6309 92.2402 57.2168 92.0605C56.8066 91.877 56.4863 91.6191 56.2559 91.2871C56.0254 90.9551 55.9102 90.5781 55.9102 90.1562C55.9102 89.7305 56.0254 89.3516 56.2559 89.0195C56.4863 88.6875 56.8066 88.4316 57.2168 88.252C57.6309 88.0684 58.0977 87.9766 58.6172 87.9766ZM55.1602 93.1445C56.4219 93.1445 57.6328 93.1191 58.793 93.0684C59.957 93.0137 61.0508 92.9102 62.0742 92.7578L62.1562 93.5898C61.2695 93.7578 60.2969 93.877 59.2383 93.9473V97.668H58.125V94.0117C57.4609 94.043 56.5234 94.0625 55.3125 94.0703L55.1602 93.1445ZM56.9883 90.1562C56.9844 90.4062 57.0508 90.627 57.1875 90.8184C57.3281 91.0098 57.5215 91.1582 57.7676 91.2637C58.0176 91.3652 58.3008 91.4141 58.6172 91.4102C58.9414 91.4141 59.2285 91.3652 59.4785 91.2637C59.7324 91.1582 59.9297 91.0098 60.0703 90.8184C60.2109 90.627 60.2812 90.4062 60.2812 90.1562C60.2812 89.9023 60.2109 89.6797 60.0703 89.4883C59.9297 89.293 59.7324 89.1426 59.4785 89.0371C59.2285 88.9316 58.9414 88.8789 58.6172 88.8789C58.3008 88.8789 58.0176 88.9316 57.7676 89.0371C57.5215 89.1426 57.3281 89.293 57.1875 89.4883C57.0508 89.6836 56.9844 89.9062 56.9883 90.1562ZM62.8008 87.5078H63.9023V97.9961H62.8008V87.5078ZM73.793 90.8828H75.3164V91.8086H73.793V95.3594H72.6797V87.5078H73.793V90.8828ZM65.5547 88.7266H68.1328V87.4961H69.2461V88.7266H71.8125V89.6289H65.5547V88.7266ZM66.1289 92.1133C66.1289 91.7188 66.2344 91.3711 66.4453 91.0703C66.6602 90.7695 66.9609 90.5391 67.3477 90.3789C67.7344 90.2148 68.1797 90.1328 68.6836 90.1328C69.1836 90.1328 69.625 90.2148 70.0078 90.3789C70.3945 90.5391 70.6934 90.7695 70.9043 91.0703C71.1191 91.3711 71.2266 91.7188 71.2266 92.1133C71.2266 92.5039 71.1191 92.8477 70.9043 93.1445C70.6934 93.4414 70.3945 93.6719 70.0078 93.8359C69.625 94 69.1836 94.082 68.6836 94.082C68.1797 94.082 67.7344 94 67.3477 93.8359C66.9609 93.6719 66.6602 93.4414 66.4453 93.1445C66.2344 92.8477 66.1289 92.5039 66.1289 92.1133ZM67.1367 94.7383H68.25V96.8711H74.2383V97.7734H67.1367V94.7383ZM67.207 92.1133C67.2031 92.3359 67.2617 92.5312 67.3828 92.6992C67.5039 92.8633 67.6738 92.9902 67.8926 93.0801C68.1152 93.1699 68.373 93.2148 68.666 93.2148C69.1191 93.2148 69.4844 93.1172 69.7617 92.9219C70.0391 92.7266 70.1797 92.457 70.1836 92.1133C70.1797 91.7695 70.041 91.498 69.7676 91.2988C69.4941 91.0957 69.1328 90.9922 68.6836 90.9883C68.3867 90.9883 68.125 91.0352 67.8984 91.1289C67.6758 91.2188 67.5039 91.3496 67.3828 91.5215C67.2617 91.6895 67.2031 91.8867 67.207 92.1133ZM87.0938 89.6875H88.6172V90.6133H87.0938V92.8047H85.9805V87.4961H87.0938V89.6875ZM79.0078 90.2031C79.0039 89.75 79.1191 89.3457 79.3535 88.9902C79.5918 88.6348 79.9199 88.3574 80.3379 88.1582C80.7598 87.959 81.2344 87.8594 81.7617 87.8594C82.2891 87.8594 82.7617 87.959 83.1797 88.1582C83.5977 88.3574 83.9238 88.6348 84.1582 88.9902C84.3965 89.3418 84.5156 89.7461 84.5156 90.2031C84.5156 90.6562 84.3965 91.0605 84.1582 91.416C83.9238 91.7715 83.5977 92.0488 83.1797 92.248C82.7617 92.4473 82.2891 92.5469 81.7617 92.5469C81.2383 92.5469 80.7656 92.4473 80.3438 92.248C79.9258 92.0488 79.5977 91.7715 79.3594 91.416C79.1211 91.0605 79.0039 90.6562 79.0078 90.2031ZM80.0859 90.2031C80.0859 90.4844 80.1562 90.7363 80.2969 90.959C80.4414 91.1777 80.6406 91.3496 80.8945 91.4746C81.1523 91.5957 81.4414 91.6562 81.7617 91.6562C82.082 91.6562 82.3691 91.5957 82.623 91.4746C82.877 91.3496 83.0762 91.1777 83.2207 90.959C83.3652 90.7363 83.4375 90.4844 83.4375 90.2031C83.4375 89.9219 83.3652 89.6738 83.2207 89.459C83.0762 89.2402 82.877 89.0723 82.623 88.9551C82.3691 88.834 82.082 88.7734 81.7617 88.7734C81.4414 88.7734 81.1523 88.834 80.8945 88.9551C80.6406 89.0723 80.4414 89.2402 80.2969 89.459C80.1562 89.6738 80.0859 89.9219 80.0859 90.2031ZM80.3086 93.2852H87.0938V95.9453H81.4219V96.9766H87.457V97.8672H80.332V95.1133H85.9922V94.1523H80.3086V93.2852ZM97.9219 93.7305H96.8086V87.5078H97.9219V93.7305ZM89.7422 88.1289H94.5703V91.082H90.8555V92.3477C91.8516 92.3477 92.709 92.3262 93.4277 92.2832C94.1465 92.2402 94.8828 92.1562 95.6367 92.0312L95.7773 92.9453C94.9922 93.0664 94.2285 93.1504 93.4863 93.1973C92.7441 93.2402 91.8828 93.2617 90.9023 93.2617H90.6445H89.7656V90.2148H93.4688V89.0195H89.7422V88.1289ZM91.0195 94.2578H97.9219V97.8672H91.0195V94.2578ZM96.832 96.9648V95.1484H92.1211V96.9648H96.832ZM107.25 94.0938C108.004 94.0938 108.66 94.1719 109.219 94.3281C109.777 94.4805 110.207 94.7031 110.508 94.9961C110.812 95.2891 110.965 95.6367 110.965 96.0391C110.965 96.4414 110.812 96.7871 110.508 97.0762C110.207 97.3691 109.777 97.5918 109.219 97.7441C108.66 97.8965 108.004 97.9727 107.25 97.9727C106.504 97.9727 105.852 97.8965 105.293 97.7441C104.738 97.5918 104.311 97.3691 104.01 97.0762C103.709 96.7871 103.559 96.4414 103.559 96.0391C103.559 95.6367 103.709 95.2891 104.01 94.9961C104.311 94.7031 104.738 94.4805 105.293 94.3281C105.848 94.1719 106.5 94.0938 107.25 94.0938ZM102.527 92.3242H106.359V90.3555H107.449V92.3242H112.078V93.2266H102.527V92.3242ZM103.641 88.0117H110.883V88.8906V89.2012C110.883 89.6543 110.863 90.0742 110.824 90.4609C110.789 90.8438 110.711 91.25 110.59 91.6797L109.5 91.5625C109.625 91.0859 109.703 90.6582 109.734 90.2793C109.766 89.8965 109.781 89.4375 109.781 88.9023H103.641V88.0117ZM104.672 96.0391C104.668 96.2617 104.77 96.4551 104.977 96.6191C105.188 96.7793 105.486 96.9023 105.873 96.9883C106.264 97.0742 106.723 97.1172 107.25 97.1172C107.785 97.1172 108.248 97.0742 108.639 96.9883C109.029 96.9023 109.33 96.7793 109.541 96.6191C109.752 96.4551 109.859 96.2617 109.863 96.0391C109.859 95.8125 109.752 95.6172 109.541 95.4531C109.33 95.2852 109.029 95.1582 108.639 95.0723C108.248 94.9824 107.785 94.9375 107.25 94.9375C106.723 94.9375 106.264 94.9824 105.873 95.0723C105.486 95.1582 105.188 95.2852 104.977 95.4531C104.77 95.6172 104.668 95.8125 104.672 96.0391ZM117.621 94.0938C118.375 94.0938 119.031 94.1719 119.59 94.3281C120.148 94.4805 120.578 94.7031 120.879 94.9961C121.184 95.2891 121.336 95.6367 121.336 96.0391C121.336 96.4414 121.184 96.7871 120.879 97.0762C120.578 97.3691 120.148 97.5918 119.59 97.7441C119.031 97.8965 118.375 97.9727 117.621 97.9727C116.875 97.9727 116.223 97.8965 115.664 97.7441C115.109 97.5918 114.682 97.3691 114.381 97.0762C114.08 96.7871 113.93 96.4414 113.93 96.0391C113.93 95.6367 114.08 95.2891 114.381 94.9961C114.682 94.7031 115.109 94.4805 115.664 94.3281C116.219 94.1719 116.871 94.0938 117.621 94.0938ZM112.898 92.3242H116.73V90.3555H117.82V92.3242H122.449V93.2266H112.898V92.3242ZM114.012 88.0117H121.254V88.8906V89.2012C121.254 89.6543 121.234 90.0742 121.195 90.4609C121.16 90.8438 121.082 91.25 120.961 91.6797L119.871 91.5625C119.996 91.0859 120.074 90.6582 120.105 90.2793C120.137 89.8965 120.152 89.4375 120.152 88.9023H114.012V88.0117ZM115.043 96.0391C115.039 96.2617 115.141 96.4551 115.348 96.6191C115.559 96.7793 115.857 96.9023 116.244 96.9883C116.635 97.0742 117.094 97.1172 117.621 97.1172C118.156 97.1172 118.619 97.0742 119.01 96.9883C119.4 96.9023 119.701 96.7793 119.912 96.6191C120.123 96.4551 120.23 96.2617 120.234 96.0391C120.23 95.8125 120.123 95.6172 119.912 95.4531C119.701 95.2852 119.4 95.1582 119.01 95.0723C118.619 94.9824 118.156 94.9375 117.621 94.9375C117.094 94.9375 116.635 94.9824 116.244 95.0723C115.857 95.1582 115.559 95.2852 115.348 95.4531C115.141 95.6172 115.039 95.8125 115.043 96.0391ZM127.043 90.168C127.043 90.8047 127.154 91.4297 127.377 92.043C127.604 92.6523 127.92 93.1934 128.326 93.666C128.732 94.1387 129.199 94.4922 129.727 94.7266L129.047 95.6172C128.461 95.3203 127.947 94.8926 127.506 94.334C127.064 93.7715 126.727 93.127 126.492 92.4004C126.258 93.1699 125.916 93.8555 125.467 94.457C125.021 95.0547 124.5 95.5078 123.902 95.8164L123.199 94.9141C123.73 94.6602 124.201 94.2852 124.611 93.7891C125.025 93.2891 125.346 92.7227 125.572 92.0898C125.803 91.4531 125.918 90.8125 125.918 90.168V88.375H127.043V90.168ZM128.566 90.9883H130.91V87.4961H132.012V98.0195H130.91V91.8906H128.566V90.9883ZM142.324 98.0195H141.211V87.4961H142.324V98.0195ZM134.215 88.375H135.328V91.0703H138.152V88.375H139.254V95.5H134.215V88.375ZM138.152 94.5859V91.9492H135.328V94.5859H138.152ZM149.332 88.9844C149.332 89.5391 149.51 90.0781 149.865 90.6016C150.221 91.125 150.693 91.5723 151.283 91.9434C151.877 92.3105 152.508 92.5547 153.176 92.6758L152.66 93.6016C152.098 93.4805 151.561 93.2812 151.049 93.0039C150.537 92.7266 150.082 92.3887 149.684 91.9902C149.289 91.5879 148.98 91.1445 148.758 90.6602C148.531 91.1406 148.219 91.582 147.82 91.9844C147.422 92.3828 146.967 92.7207 146.455 92.998C145.943 93.2754 145.406 93.4766 144.844 93.6016L144.352 92.6758C145.012 92.5508 145.633 92.3047 146.215 91.9375C146.801 91.5664 147.271 91.1211 147.627 90.6016C147.982 90.0781 148.16 89.5391 148.16 88.9844V88.1875H149.332V88.9844ZM144 95.6875H153.609V96.6133H144V95.6875Z" fill="#A5A5A5"/>
</g>
<defs>
<linearGradient id="paint0_linear_229_989" x1="90.3583" y1="13.9374" x2="69.4462" y2="50.8877" gradientUnits="userSpaceOnUse">
<stop stop-color="#6AFFFF"/>
<stop offset="1" stop-color="#0075E2"/>
</linearGradient>
<linearGradient id="paint1_linear_229_989" x1="61.3955" y1="19.6513" x2="75.6073" y2="51.5264" gradientUnits="userSpaceOnUse">
<stop stop-color="#5EFF8B"/>
<stop offset="1" stop-color="#00DBFF"/>
</linearGradient>
</defs>
</svg>
