<svg width="182" height="194" viewBox="0 0 182 194" fill="none" xmlns="http://www.w3.org/2000/svg">
<path d="M55.9976 96C46.713 96 40.9456 85.9082 45.6586 77.9087L81.2091 17.5673C85.853 9.68483 97.2559 9.69001 101.893 17.5767L137.369 77.9181C142.072 85.9178 136.304 96 127.025 96H55.9976ZM83.4286 76.8C83.4286 81.2172 87.0813 84.8098 91.5589 84.8098C95.9776 84.8098 99.6303 81.2172 99.5714 76.8C99.6303 72.265 95.9776 68.6135 91.5589 68.6724C87.0813 68.6135 83.4286 72.265 83.4286 76.8ZM91.5445 32.0393C87.8015 32.0393 84.7896 35.1154 84.8686 38.8575L85.1831 53.758C85.2558 57.2019 88.0684 59.9558 91.5131 59.9558C94.9473 59.9558 97.7555 57.2179 97.8424 53.7847L98.2197 38.8857C98.3148 35.1329 95.2985 32.0393 91.5445 32.0393Z" fill="#FF0000"/>
<path d="M19.9219 124.029V146.246H16.9434V124.029H19.9219ZM0.854492 133.648C0.854492 128.68 2.74658 125.604 5.68848 125.616C8.36182 125.604 10.1929 128.106 10.5347 132.257H12.3535V124.347H15.2832V145.221H12.3535V134.723H10.5591C10.2905 139.081 8.42285 141.729 5.68848 141.729C2.74658 141.729 0.854492 138.641 0.854492 133.648ZM3.73535 133.648C3.71094 137.066 4.44336 138.751 5.68848 138.727C6.97021 138.751 7.72705 137.066 7.71484 133.648C7.72705 130.243 6.97021 128.546 5.68848 128.546C4.44336 128.546 3.71094 130.243 3.73535 133.648ZM40.4912 124.029V146.295H37.3906V134.576H33.8018V132.037H37.3906V124.029H40.4912ZM22.498 128.399V125.885H32.5566V134.21H25.6475V138.556C28.7114 138.531 31.2993 138.421 34.168 137.921L34.4121 140.46C31.1162 141.009 28.1011 141.131 24.3779 141.119H22.5469V131.744H29.5293V128.399H22.498ZM60.4014 124.029V132.55H63.5508V135.113H60.4014V146.197H57.2764V124.029H60.4014ZM42.6279 139.972C47.8892 137.335 50.7212 133.795 51.3071 128.839H43.8975V126.3H54.4688C54.4443 132.94 51.8564 138.69 44.3857 142.364L42.6279 139.972ZM73 125.03V127.667H77.541V125.03H80.666V134.723H69.8994V125.03H73ZM72.1211 138.58V136.163H86.8672V142.193H75.2217V143.634H87.502V146.1H72.1699V139.972H83.7666V138.58H72.1211ZM73 132.281H77.541V130.011H73V132.281ZM83.7422 135.333V124.029H86.8672V128.351H89.8701V130.865H86.8672V135.333H83.7422ZM97.4512 127.984C97.4512 130.389 98.6963 132.757 101.65 133.893L99.9902 136.261C98.0859 135.541 96.7798 134.222 95.9863 132.586C95.1807 134.503 93.7891 136.102 91.7139 136.969L90.0293 134.576C93.1665 133.197 94.4238 130.462 94.4238 127.984V125.372H97.4512V127.984ZM94.1553 142.096C94.1431 139.496 97.1338 137.933 101.846 137.945C106.533 137.933 109.536 139.496 109.561 142.096C109.536 144.671 106.533 146.258 101.846 146.246C97.1338 146.258 94.1431 144.671 94.1553 142.096ZM97.2803 142.096C97.2559 143.292 98.9282 143.902 101.846 143.902C104.739 143.902 106.411 143.292 106.411 142.096C106.411 140.887 104.739 140.265 101.846 140.265C98.9282 140.265 97.2559 140.887 97.2803 142.096ZM101.724 136.944V124.444H104.629V129.474H106.484V124.054H109.438V137.628H106.484V131.988H104.629V136.944H101.724ZM130.545 124.054V137.726H127.591V132.257H125.857V137.481H122.952V124.347H125.857V129.742H127.591V124.054H130.545ZM111.331 128.619V126.153H115.262V124.151H118.362V126.153H122.244V128.619H111.331ZM112.015 133.209C112.002 130.877 114.041 129.327 116.824 129.327C119.644 129.327 121.67 130.877 121.683 133.209C121.67 135.492 119.644 137.079 116.824 137.091C114.041 137.079 112.002 135.492 112.015 133.209ZM112.698 143.658C115.579 142.828 116.873 140.826 116.873 138.873V138.409H119.974V138.873C119.949 140.497 120.682 142.169 122.427 143.28C124.197 142.108 124.979 140.362 125.003 138.873V138.409H128.104V138.873C128.079 140.936 129.324 142.914 132.278 143.658L130.838 145.978C128.689 145.318 127.273 144.024 126.492 142.389C125.784 144.024 124.502 145.465 122.488 146.197C120.425 145.477 119.119 144.122 118.399 142.499C117.605 144.061 116.202 145.318 114.163 145.978L112.698 143.658ZM114.798 133.209C114.786 134.247 115.604 134.845 116.824 134.845C118.033 134.845 118.863 134.247 118.875 133.209C118.863 132.123 118.033 131.549 116.824 131.549C115.616 131.549 114.786 132.123 114.798 133.209ZM138.688 125.592C141.69 125.592 143.937 128.058 144.376 132.062H148.233V124.029H151.31V146.295H148.233V134.552H144.413C144.083 138.824 141.788 141.437 138.688 141.437C135.318 141.437 132.901 138.385 132.926 133.502C132.901 128.656 135.318 125.592 138.688 125.592ZM135.904 133.502C135.892 136.81 137.027 138.617 138.688 138.604C140.36 138.617 141.471 136.81 141.471 133.502C141.471 130.206 140.36 128.399 138.688 128.399C137.027 128.399 135.892 130.206 135.904 133.502ZM174.003 141.095V143.658H153.666V141.095H158.207V135.65C156.486 134.613 155.448 133.038 155.448 131.085C155.448 127.484 158.964 125.116 163.798 125.104C168.607 125.116 172.16 127.484 172.172 131.085C172.16 133.001 171.159 134.552 169.486 135.589V141.095H174.003ZM158.524 131.085C158.524 133.258 160.612 134.601 163.798 134.601C166.935 134.601 169.083 133.258 169.096 131.085C169.083 128.851 166.935 127.557 163.798 127.569C160.612 127.557 158.524 128.851 158.524 131.085ZM161.283 141.095H166.337V136.773C165.543 136.932 164.689 137.018 163.798 137.018C162.907 137.018 162.064 136.932 161.283 136.786V141.095ZM179.826 126.324L179.509 138.702H176.384L176.066 126.324H179.826ZM175.92 142.169C175.896 141.046 176.823 140.13 177.971 140.143C179.057 140.13 179.997 141.046 179.997 142.169C179.997 143.304 179.057 144.22 177.971 144.22C176.823 144.22 175.896 143.304 175.92 142.169Z" fill="#202020"/>
<path d="M25.0363 164.078C25.0324 164.48 25.134 164.867 25.341 165.238C25.548 165.609 25.8469 165.939 26.2375 166.229C26.6281 166.514 27.0871 166.73 27.6145 166.879L27.0871 167.746C26.4895 167.574 25.968 167.311 25.5227 166.955C25.0813 166.6 24.7395 166.18 24.4973 165.695C24.2629 166.242 23.9133 166.717 23.4484 167.119C22.9875 167.518 22.4387 167.812 21.802 168.004L21.2629 167.137C21.802 166.973 22.2707 166.736 22.6691 166.428C23.0676 166.119 23.3742 165.764 23.5891 165.361C23.8039 164.955 23.9113 164.531 23.9113 164.09V163.949H21.6145V163.059H27.298V163.949H25.0363V164.078ZM22.8449 168.355H29.6301V170.969H23.9582V172.023H29.9934V172.891H22.8684V170.16H28.5285V169.223H22.8449V168.355ZM28.5168 162.496H29.6301V164.711H31.1535V165.625H29.6301V167.898H28.5168V162.496ZM39.8666 166.48H36.8432V167.629H41.0854V168.531H31.5112V167.629H35.7534V166.48H32.7299V162.93H39.8666V166.48ZM32.226 172.059C32.8979 171.969 33.4995 171.799 34.0307 171.549C34.562 171.299 34.978 170.992 35.2788 170.629C35.5795 170.262 35.7299 169.863 35.7299 169.434V169.129H36.8549V169.434C36.8549 169.863 37.0034 170.262 37.3002 170.629C37.601 170.992 38.017 171.299 38.5483 171.549C39.0834 171.799 39.6909 171.969 40.3706 172.059L39.9487 172.938C39.1127 172.805 38.3725 172.561 37.728 172.205C37.0834 171.85 36.6049 171.406 36.2924 170.875C35.976 171.406 35.4956 171.85 34.851 172.205C34.2104 172.561 33.4721 172.805 32.6362 172.938L32.226 172.059ZM38.7651 165.59V163.809H33.8198V165.59H38.7651ZM47.7595 166.762H45.7087V168.092C46.7438 168.041 47.6501 167.973 48.4274 167.887L48.5095 168.707C46.7321 168.949 44.5895 169.07 42.0817 169.07H41.8415L41.6891 168.18C42.7946 168.172 43.7673 168.156 44.6071 168.133V166.762H42.6266V163.164H47.6657V164.066H43.7399V165.859H47.7595V166.762ZM43.4235 169.809H44.5368V171.871H50.6774V172.773H43.4235V169.809ZM49.236 162.496H50.3493V170.371H49.236V162.496ZM63.217 168.719H62.1037V167.441H59.4552V166.527H62.1037V165.25H59.5666C59.2306 166.086 58.6779 166.801 57.9084 167.395C57.1388 167.988 56.1818 168.449 55.0373 168.777L54.592 167.91C55.8302 167.559 56.8029 167.061 57.5099 166.416C58.2209 165.771 58.6271 165.023 58.7287 164.172H55.131V163.258H59.9357C59.9357 163.629 59.8986 164 59.8244 164.371H62.1037V162.508H63.217V168.719ZM56.2209 170.887C56.2209 170.469 56.3654 170.105 56.6545 169.797C56.9435 169.488 57.3537 169.252 57.8849 169.088C58.4201 168.92 59.0451 168.836 59.7599 168.836C60.467 168.836 61.0861 168.92 61.6173 169.088C62.1486 169.252 62.5588 169.488 62.8478 169.797C63.1408 170.105 63.2873 170.469 63.2873 170.887C63.2873 171.309 63.1408 171.676 62.8478 171.988C62.5588 172.297 62.1486 172.533 61.6173 172.697C61.0861 172.865 60.467 172.949 59.7599 172.949C59.0451 172.949 58.4201 172.865 57.8849 172.697C57.3537 172.533 56.9435 172.297 56.6545 171.988C56.3654 171.676 56.2209 171.309 56.2209 170.887ZM57.3224 170.887C57.3224 171.129 57.4201 171.338 57.6154 171.514C57.8146 171.689 58.0959 171.824 58.4591 171.918C58.8263 172.012 59.2599 172.059 59.7599 172.059C60.2482 172.059 60.674 172.012 61.0373 171.918C61.4006 171.824 61.6798 171.689 61.8752 171.514C62.0744 171.338 62.174 171.129 62.174 170.887C62.174 170.641 62.0763 170.43 61.881 170.254C61.6857 170.078 61.4084 169.945 61.049 169.855C60.6935 169.762 60.2736 169.715 59.7892 169.715C59.0197 169.715 58.4162 169.816 57.9787 170.02C57.5412 170.223 57.3224 170.512 57.3224 170.887ZM74.2035 171.742H64.5941V170.805H68.8246V168.965H65.766V165.625H71.9301V164.148H65.7426V163.234H73.0316V166.516H66.8676V168.051H73.2777V168.965H69.9262V170.805H74.2035V171.742ZM84.3346 171.742H74.7252V170.805H78.9557V168.965H75.8971V165.625H82.0612V164.148H75.8737V163.234H83.1627V166.516H76.9987V168.051H83.4088V168.965H80.0573V170.805H84.3346V171.742ZM97.132 167.688H87.546V166.797H97.132V167.688ZM88.6945 168.52H95.9132V171.062H89.796V172H96.2062V172.879H88.7062V170.242H94.8116V169.375H88.6945V168.52ZM88.7999 162.801H95.8898V163.703H89.9132V165.145H95.9952V166.035H88.7999V162.801ZM100.525 163.281C100.997 163.281 101.423 163.41 101.802 163.668C102.181 163.926 102.488 164.291 102.722 164.764C102.96 165.236 103.107 165.793 103.161 166.434H105.329V162.496H106.431V173.02H105.329V167.336H103.173C103.134 168.012 102.997 168.6 102.763 169.1C102.529 169.6 102.218 169.984 101.831 170.254C101.445 170.52 101.009 170.652 100.525 170.652C100.005 170.652 99.5423 170.502 99.1361 170.201C98.7337 169.9 98.4193 169.471 98.1927 168.912C97.9701 168.354 97.8607 167.703 97.8646 166.961C97.8607 166.227 97.9701 165.582 98.1927 165.027C98.4193 164.469 98.7337 164.039 99.1361 163.738C99.5423 163.434 100.005 163.281 100.525 163.281ZM98.9193 166.961C98.9193 167.508 98.9857 167.984 99.1185 168.391C99.2552 168.797 99.4447 169.109 99.6869 169.328C99.9291 169.547 100.208 169.656 100.525 169.656C100.841 169.656 101.12 169.547 101.363 169.328C101.605 169.109 101.792 168.797 101.925 168.391C102.062 167.984 102.13 167.508 102.13 166.961C102.13 166.422 102.062 165.951 101.925 165.549C101.788 165.143 101.599 164.83 101.357 164.611C101.119 164.389 100.841 164.277 100.525 164.277C100.208 164.277 99.9291 164.389 99.6869 164.611C99.4486 164.83 99.2611 165.143 99.1244 165.549C98.9877 165.951 98.9193 166.422 98.9193 166.961ZM117.382 168.941H107.808V168.027H112.039V167.014C111.382 166.975 110.814 166.865 110.334 166.686C109.853 166.506 109.484 166.266 109.226 165.965C108.968 165.66 108.839 165.305 108.839 164.898C108.839 164.469 108.992 164.096 109.296 163.779C109.601 163.463 110.037 163.219 110.603 163.047C111.17 162.875 111.832 162.789 112.589 162.789C113.343 162.789 114.002 162.875 114.564 163.047C115.13 163.219 115.568 163.463 115.877 163.779C116.185 164.096 116.339 164.469 116.339 164.898C116.339 165.305 116.209 165.66 115.947 165.965C115.689 166.266 115.32 166.506 114.839 166.686C114.359 166.865 113.793 166.975 113.14 167.014V168.027H117.382V168.941ZM109.015 169.727H110.14V171.871H116.304V172.773H109.015V169.727ZM109.988 164.898C109.984 165.289 110.213 165.592 110.673 165.807C111.134 166.018 111.773 166.125 112.589 166.129C113.402 166.125 114.039 166.018 114.5 165.807C114.964 165.592 115.195 165.289 115.191 164.898C115.191 164.652 115.088 164.439 114.88 164.26C114.673 164.076 114.375 163.936 113.984 163.838C113.597 163.74 113.142 163.691 112.619 163.691C112.08 163.691 111.611 163.74 111.213 163.838C110.818 163.932 110.515 164.07 110.304 164.254C110.093 164.434 109.988 164.648 109.988 164.898ZM126.693 169.562H125.58V166.316H123.435V165.402H125.58V162.508H126.693V169.562ZM118.092 168.074C119.322 167.703 120.283 167.188 120.974 166.527C121.67 165.867 122.07 165.098 122.176 164.219H118.631V163.316H123.365C123.365 164.676 122.955 165.832 122.135 166.785C121.318 167.738 120.135 168.461 118.584 168.953L118.092 168.074ZM119.205 172.07C119.861 171.965 120.453 171.771 120.98 171.49C121.508 171.205 121.924 170.857 122.228 170.447C122.533 170.037 122.685 169.598 122.685 169.129V168.695H123.787V169.129C123.787 169.594 123.935 170.029 124.232 170.436C124.533 170.838 124.945 171.182 125.469 171.467C125.996 171.748 126.588 171.945 127.244 172.059L126.787 172.938C125.978 172.793 125.262 172.525 124.637 172.135C124.012 171.748 123.543 171.27 123.23 170.699C122.914 171.27 122.439 171.75 121.806 172.141C121.178 172.535 120.455 172.809 119.639 172.961L119.205 172.07ZM139.01 164.863H140.534V165.766H139.01V168.074H137.897V162.496H139.01V164.863ZM130.772 167.371C131.635 167.195 132.369 166.949 132.975 166.633C133.58 166.312 134.047 165.939 134.375 165.514C134.703 165.084 134.893 164.617 134.944 164.113H131.241V163.223H136.174C136.174 164.543 135.748 165.631 134.897 166.486C134.045 167.338 132.826 167.934 131.241 168.273L130.772 167.371ZM132.272 168.52H139.057V169.363H133.385V170.266H138.94V171.074H133.385V172.023H139.291V172.867H132.272V168.52ZM143.704 163.281C144.223 163.281 144.686 163.434 145.092 163.738C145.503 164.039 145.823 164.469 146.053 165.027C146.284 165.582 146.399 166.227 146.399 166.961C146.399 167.703 146.284 168.354 146.053 168.912C145.823 169.471 145.504 169.9 145.098 170.201C144.692 170.502 144.227 170.652 143.704 170.652C143.18 170.652 142.715 170.502 142.309 170.201C141.903 169.9 141.586 169.471 141.36 168.912C141.133 168.354 141.02 167.703 141.02 166.961C141.02 166.227 141.133 165.582 141.36 165.027C141.586 164.469 141.903 164.039 142.309 163.738C142.715 163.434 143.18 163.281 143.704 163.281ZM142.086 166.961C142.086 167.508 142.153 167.984 142.286 168.391C142.422 168.797 142.614 169.109 142.86 169.328C143.106 169.547 143.387 169.656 143.704 169.656C144.028 169.656 144.313 169.549 144.559 169.334C144.805 169.115 144.995 168.803 145.128 168.396C145.264 167.986 145.333 167.508 145.333 166.961C145.333 166.418 145.264 165.945 145.128 165.543C144.995 165.137 144.805 164.824 144.559 164.605C144.313 164.387 144.028 164.277 143.704 164.277C143.387 164.277 143.106 164.389 142.86 164.611C142.614 164.83 142.422 165.143 142.286 165.549C142.153 165.951 142.086 166.422 142.086 166.961ZM147.958 162.496H149.071V166.609H150.758V167.547H149.071V172.996H147.958V162.496ZM160.632 171.684H151.022V170.758H153.319V168.016C152.878 167.773 152.536 167.467 152.294 167.096C152.052 166.725 151.932 166.309 151.936 165.848C151.936 165.305 152.1 164.826 152.429 164.412C152.757 163.998 153.214 163.678 153.8 163.451C154.389 163.221 155.057 163.105 155.804 163.105C156.55 163.105 157.218 163.221 157.807 163.451C158.397 163.678 158.856 163.998 159.184 164.412C159.516 164.826 159.682 165.305 159.682 165.848C159.682 166.305 159.565 166.717 159.331 167.084C159.096 167.447 158.764 167.75 158.335 167.992V170.758H160.632V171.684ZM153.014 165.848C153.014 166.219 153.132 166.545 153.366 166.826C153.6 167.107 153.929 167.326 154.35 167.482C154.772 167.635 155.257 167.711 155.804 167.711C156.346 167.711 156.829 167.633 157.251 167.477C157.677 167.32 158.009 167.104 158.247 166.826C158.485 166.545 158.604 166.219 158.604 165.848C158.604 165.477 158.485 165.152 158.247 164.875C158.009 164.594 157.677 164.377 157.251 164.225C156.829 164.072 156.346 163.996 155.804 163.996C155.257 163.996 154.772 164.072 154.35 164.225C153.929 164.377 153.6 164.594 153.366 164.875C153.132 165.152 153.014 165.477 153.014 165.848ZM157.21 170.758V168.426C156.772 168.527 156.304 168.578 155.804 168.578C155.311 168.578 154.85 168.527 154.421 168.426V170.758H157.21ZM56.1152 183.562H57.8027V184.477H56.1152V190.02H55.0019V179.496H56.1152V183.562ZM48.3808 180.504H53.2909V181.406H49.4941V186.48C50.4238 186.477 51.2402 186.449 51.9433 186.398C52.6464 186.348 53.3573 186.258 54.0761 186.129L54.2167 187.066C53.4745 187.199 52.746 187.289 52.0312 187.336C51.3202 187.383 50.4745 187.406 49.4941 187.406H49.2245H48.3808V180.504ZM61.922 182.168C61.9181 182.801 62.0334 183.424 62.2677 184.037C62.506 184.65 62.8361 185.195 63.258 185.672C63.6838 186.145 64.1642 186.5 64.6994 186.738L64.0314 187.617C63.4338 187.332 62.9045 186.91 62.4435 186.352C61.9826 185.793 61.6271 185.152 61.3771 184.43C61.131 185.211 60.7716 185.9 60.299 186.498C59.8302 187.096 59.2853 187.547 58.6642 187.852L57.9845 186.914C58.5275 186.676 59.0119 186.311 59.4377 185.818C59.8634 185.322 60.1955 184.756 60.4338 184.119C60.6759 183.479 60.797 182.828 60.797 182.168V180.375H61.922V182.168ZM65.6486 179.496H66.7619V190.02H65.6486V179.496ZM74.7428 182.168C74.7389 182.801 74.8541 183.424 75.0885 184.037C75.3268 184.65 75.6569 185.195 76.0788 185.672C76.5045 186.145 76.985 186.5 77.5202 186.738L76.8522 187.617C76.2545 187.332 75.7252 186.91 75.2643 186.352C74.8034 185.793 74.4479 185.152 74.1979 184.43C73.9518 185.211 73.5924 185.9 73.1198 186.498C72.651 187.096 72.1061 187.547 71.485 187.852L70.8053 186.914C71.3483 186.676 71.8327 186.311 72.2584 185.818C72.6842 185.322 73.0163 184.756 73.2545 184.119C73.4967 183.479 73.6178 182.828 73.6178 182.168V180.375H74.7428V182.168ZM78.4694 179.496H79.5827V190.02H78.4694V179.496ZM89.5263 185.227H86.3505V187.793H90.6278V188.707H81.0184V187.793H85.2489V185.227H82.2138V180.305H89.4325V181.207H83.327V184.336H89.5263V185.227ZM96.3409 182.133H91.1261V181.23H93.1886V179.801H94.2902V181.23H96.3409V182.133ZM91.4659 185.18C91.4659 184.715 91.5616 184.299 91.7531 183.932C91.9484 183.564 92.2198 183.279 92.5675 183.076C92.9152 182.869 93.3058 182.766 93.7394 182.766C94.1769 182.766 94.5675 182.869 94.9113 183.076C95.2589 183.279 95.5304 183.564 95.7257 183.932C95.9249 184.299 96.0245 184.715 96.0245 185.18C96.0245 185.652 95.9249 186.074 95.7257 186.445C95.5304 186.816 95.2589 187.105 94.9113 187.312C94.5675 187.516 94.1769 187.617 93.7394 187.617C93.3058 187.617 92.9152 187.516 92.5675 187.312C92.2198 187.105 91.9484 186.816 91.7531 186.445C91.5616 186.074 91.4659 185.652 91.4659 185.18ZM92.4503 185.18C92.4503 185.473 92.505 185.732 92.6144 185.959C92.7238 186.182 92.8761 186.355 93.0714 186.48C93.2667 186.605 93.4894 186.668 93.7394 186.668C93.9894 186.668 94.212 186.605 94.4073 186.48C94.6066 186.355 94.7609 186.182 94.8702 185.959C94.9835 185.732 95.0402 185.473 95.0402 185.18C95.0402 184.895 94.9835 184.639 94.8702 184.412C94.7609 184.186 94.6066 184.01 94.4073 183.885C94.212 183.756 93.9894 183.691 93.7394 183.691C93.4894 183.691 93.2667 183.756 93.0714 183.885C92.8761 184.01 92.7238 184.186 92.6144 184.412C92.505 184.639 92.4503 184.895 92.4503 185.18ZM96.8214 179.73H97.8761V183.867H99.0831V179.496H100.138V189.996H99.0831V184.781H97.8761V189.504H96.8214V179.73ZM110.855 186.316H106.589V189.984H105.499V186.316H101.281V185.414H110.855V186.316ZM101.82 183.738C102.468 183.648 103.066 183.471 103.613 183.205C104.163 182.936 104.603 182.607 104.931 182.221C105.259 181.834 105.429 181.43 105.441 181.008H102.171V180.117H109.952V181.008H106.706C106.71 181.43 106.874 181.834 107.199 182.221C107.527 182.607 107.966 182.936 108.517 183.205C109.068 183.471 109.671 183.648 110.327 183.738L109.917 184.617C109.343 184.527 108.802 184.377 108.294 184.166C107.786 183.951 107.341 183.686 106.958 183.369C106.576 183.049 106.279 182.693 106.068 182.303C105.857 182.693 105.56 183.049 105.177 183.369C104.794 183.686 104.351 183.951 103.847 184.166C103.343 184.377 102.808 184.527 102.242 184.617L101.82 183.738ZM114.611 182.367C114.611 182.938 114.691 183.502 114.851 184.061C115.011 184.615 115.25 185.123 115.566 185.584C115.882 186.045 116.267 186.414 116.72 186.691L116.099 187.547C115.623 187.262 115.214 186.873 114.875 186.381C114.539 185.885 114.277 185.322 114.089 184.693C113.894 185.377 113.615 185.986 113.252 186.521C112.892 187.057 112.463 187.477 111.963 187.781L111.271 186.949C111.752 186.66 112.162 186.275 112.502 185.795C112.845 185.314 113.103 184.783 113.275 184.201C113.451 183.615 113.537 183.02 113.533 182.414V180.457H114.611V182.367ZM115.584 183.188H117.213V179.695H118.267V189.48H117.213V184.113H115.584V183.188ZM119.38 179.496H120.447V189.996H119.38V179.496ZM131.152 188.684H121.543V187.758H123.84V185.016C123.398 184.773 123.056 184.467 122.814 184.096C122.572 183.725 122.453 183.309 122.457 182.848C122.457 182.305 122.621 181.826 122.949 181.412C123.277 180.998 123.734 180.678 124.32 180.451C124.91 180.221 125.578 180.105 126.324 180.105C127.07 180.105 127.738 180.221 128.328 180.451C128.918 180.678 129.377 180.998 129.705 181.412C130.037 181.826 130.203 182.305 130.203 182.848C130.203 183.305 130.086 183.717 129.851 184.084C129.617 184.447 129.285 184.75 128.855 184.992V187.758H131.152V188.684ZM123.535 182.848C123.535 183.219 123.652 183.545 123.887 183.826C124.121 184.107 124.449 184.326 124.871 184.482C125.293 184.635 125.777 184.711 126.324 184.711C126.867 184.711 127.349 184.633 127.771 184.477C128.197 184.32 128.529 184.104 128.767 183.826C129.006 183.545 129.125 183.219 129.125 182.848C129.125 182.477 129.006 182.152 128.767 181.875C128.529 181.594 128.197 181.377 127.771 181.225C127.349 181.072 126.867 180.996 126.324 180.996C125.777 180.996 125.293 181.072 124.871 181.225C124.449 181.377 124.121 181.594 123.887 181.875C123.652 182.152 123.535 182.477 123.535 182.848ZM127.73 187.758V185.426C127.293 185.527 126.824 185.578 126.324 185.578C125.832 185.578 125.371 185.527 124.941 185.426V187.758H127.73ZM132.869 189.082C132.721 189.082 132.582 189.045 132.453 188.971C132.328 188.896 132.227 188.797 132.149 188.672C132.074 188.547 132.037 188.41 132.037 188.262C132.037 188.109 132.074 187.969 132.149 187.84C132.223 187.711 132.322 187.609 132.447 187.535C132.576 187.457 132.717 187.418 132.869 187.418C133.018 187.418 133.154 187.455 133.279 187.529C133.408 187.604 133.51 187.705 133.584 187.834C133.662 187.963 133.701 188.102 133.701 188.25C133.701 188.398 133.662 188.537 133.584 188.666C133.51 188.791 133.408 188.893 133.279 188.971C133.154 189.045 133.018 189.082 132.869 189.082Z" fill="#202020"/>
</svg>
