<svg width="49" height="18" viewBox="0 0 49 18" fill="none" xmlns="http://www.w3.org/2000/svg">
<path d="M7.10547 1.85938V6.48828H8.88281V0.277344H11.2266V16.9766H8.88281V8.48047H7.10547V13.3242H0.0351562V1.85938H7.10547ZM2.35938 3.83203V11.3711H4.78125V3.83203H2.35938ZM14.9375 0.0234375V17.7969H12.5547V0.0234375H14.9375ZM23.3266 4.04688C23.3266 7.30859 24.8109 10.5898 27.8188 11.8594L26.3539 13.8516C24.3227 12.9336 22.9164 11.166 22.1156 8.96875C21.3051 11.3613 19.85 13.2949 17.682 14.2812L16.1781 12.2109C19.2836 10.9023 20.7875 7.50391 20.807 4.04688V1.39062H23.3266V4.04688ZM31.2953 0.0234375V17.8359H28.7758V0.0234375H31.2953ZM40.1922 4.86719C40.1922 7.73828 41.657 10.8047 44.6453 12.0547L43.2977 14.0078C41.198 13.1191 39.7527 11.3516 38.9617 9.18359C38.1512 11.5371 36.6766 13.4902 34.5867 14.457L33.1609 12.4844C36.1102 11.1758 37.6336 7.875 37.6336 4.86719V3.77344H33.8641V1.74219H43.9031V3.77344H40.1922V4.86719ZM48.1805 0.0234375V17.7969H45.6609V0.0234375H48.1805Z" fill="#202020"/>
</svg>
