<svg width="75" height="105" viewBox="0 0 75 105" fill="none" xmlns="http://www.w3.org/2000/svg">
<path d="M73.0295 40.9973L42.6969 97.5339C41.8762 99.0852 40.7552 100.458 39.3991 101.572C38.0431 102.686 36.479 103.519 34.7979 104.023C33.1168 104.527 31.3523 104.692 29.6069 104.507C27.8616 104.323 26.1704 103.793 24.6317 102.949C18.1668 99.3881 15.7736 91.2019 19.285 84.6539L49.6082 28.1173C50.4288 26.566 51.5498 25.1934 52.9059 24.0794C54.262 22.9653 55.8261 22.1321 57.5072 21.6281C59.1883 21.1242 60.9528 20.9596 62.6981 21.1439C64.4434 21.3282 66.1346 21.8578 67.6734 22.7018C74.1478 26.2607 76.541 34.4517 73.0295 40.9973Z" fill="url(#paint0_linear_203_1032)"/>
<path d="M8.37089 34.4896C5.09559 35.808 2.47536 38.3694 1.08289 41.6139C-0.309585 44.8584 -0.361079 48.5222 0.939661 51.8046L18.6867 96.5676C19.3239 98.2036 20.2803 99.6966 21.5001 100.959C22.7199 102.222 24.1788 103.23 25.7918 103.924C27.4048 104.617 29.1396 104.983 30.8953 104.999C32.651 105.016 34.3925 104.683 36.0183 104.02C42.8489 101.23 46.1656 93.3671 43.4282 86.4511L25.7856 41.9493C25.1368 40.313 24.171 38.821 22.9437 37.5591C21.7165 36.2972 20.252 35.2903 18.6344 34.5962C17.0168 33.9021 15.2779 33.5346 13.5178 33.5147C11.7576 33.4947 10.0109 33.8228 8.37799 34.4801L8.37089 34.4896Z" fill="url(#paint1_linear_203_1032)"/>
<path d="M24.1208 23.7355C25.5971 20.1715 23.9046 16.0856 20.3407 14.6093C16.7767 13.1331 12.6907 14.8255 11.2145 18.3895C9.73824 21.9535 11.4307 26.0394 14.9947 27.5156C18.5587 28.9919 22.6446 27.2995 24.1208 23.7355Z" fill="#5EFF8B"/>
<path d="M61.4016 11.7992C62.8779 8.23518 61.1854 4.14925 57.6214 2.673C54.0574 1.19674 49.9715 2.8892 48.4953 6.45319C47.019 10.0172 48.7115 14.1031 52.2754 15.5794C55.8394 17.0556 59.9254 15.3632 61.4016 11.7992Z" fill="#00DBFF"/>
<defs>
<linearGradient id="paint0_linear_203_1032" x1="66.0874" y1="27.6116" x2="24.6578" y2="100.815" gradientUnits="userSpaceOnUse">
<stop stop-color="#6AFFFF"/>
<stop offset="1" stop-color="#0075E2"/>
</linearGradient>
<linearGradient id="paint1_linear_203_1032" x1="8.70801" y1="38.9317" x2="36.8635" y2="102.08" gradientUnits="userSpaceOnUse">
<stop stop-color="#5EFF8B"/>
<stop offset="1" stop-color="#00DBFF"/>
</linearGradient>
</defs>
</svg>
