<svg width="187" height="19" viewBox="0 0 187 19" fill="none" xmlns="http://www.w3.org/2000/svg">
<path d="M0.845703 1.72852H5.32812V3.45117H2.99023V16.8633H5.32812V18.5859H0.845703V1.72852ZM12.6322 6.52734H14.4779V0.955078H16.3412V15.791H14.4779V8.10938H12.6322V12.4688H6.39195V2.39648H12.6322V6.52734ZM10.8041 10.9219V3.94336H8.22008V10.9219H10.8041ZM17.7298 0.673828H19.6107V16.5645H17.7298V0.673828ZM27.1081 4.48828C27.1023 5.4668 27.2634 6.41895 27.5915 7.34473C27.9196 8.27051 28.3943 9.09375 29.0154 9.81445C29.6364 10.5352 30.3659 11.0742 31.2038 11.4316L30.0437 12.9961C29.1472 12.5801 28.365 11.9766 27.697 11.1855C27.0349 10.3887 26.5163 9.45996 26.1413 8.39941C25.7663 9.54199 25.2361 10.5439 24.5505 11.4053C23.8708 12.2666 23.0593 12.9199 22.1159 13.3652L20.9206 11.7305C21.782 11.3613 22.529 10.8047 23.1618 10.0605C23.7946 9.31055 24.278 8.45215 24.612 7.48535C24.946 6.51855 25.1159 5.51953 25.1218 4.48828V1.95703H27.1081V4.48828ZM32.3464 0.673828H34.3152V16.582H32.3464V0.673828ZM42.2872 5.19141C42.2872 6.06445 42.4512 6.92871 42.7794 7.78418C43.1134 8.63379 43.588 9.39844 44.2032 10.0781C44.8243 10.752 45.5509 11.2617 46.3829 11.6074L45.3106 13.1543C44.3907 12.7559 43.5909 12.167 42.9112 11.3877C42.2315 10.6025 41.7042 9.69141 41.3292 8.6543C40.9542 9.76758 40.4239 10.752 39.7384 11.6074C39.0528 12.4629 38.2559 13.1074 37.3477 13.541L36.2227 12.0117C37.0372 11.6367 37.752 11.0859 38.3673 10.3594C38.9825 9.63281 39.4571 8.81543 39.7911 7.90723C40.1251 6.99902 40.295 6.09375 40.3009 5.19141V3.85547H36.8028V2.23828H45.7677V3.85547H42.2872V5.19141ZM47.543 0.673828H49.5118V16.5645H47.543V0.673828ZM51.3666 18.5859V16.8633H53.7045V3.45117H51.3666V1.72852H55.8491V18.5859H51.3666ZM75.0802 12.293H73.1291V6.47461H70.3166V4.89258H73.1291V0.691406H75.0802V12.293ZM61.7384 8.86523C62.5588 8.5957 63.2619 8.20312 63.8478 7.6875C64.4338 7.16602 64.8761 6.57422 65.175 5.91211C65.4738 5.24414 65.6232 4.55273 65.6232 3.83789V3.41602H62.3185V1.83398H70.8966V3.41602H67.6095V3.85547C67.6095 4.50586 67.7531 5.1416 68.0402 5.7627C68.3273 6.37793 68.7521 6.93164 69.3146 7.42383C69.8771 7.91016 70.5568 8.28516 71.3537 8.54883L70.3693 10.1133C69.5021 9.81445 68.7521 9.38086 68.1193 8.8125C67.4923 8.23828 67.0002 7.56445 66.6427 6.79102C66.2853 7.64648 65.7755 8.39062 65.1134 9.02344C64.4513 9.65625 63.6603 10.1309 62.7404 10.4473L61.7384 8.86523ZM64.6564 11.2734H66.6076V14.666H75.4845V16.248H64.6564V11.2734ZM89.5386 7.23047H91.771V8.86523H89.5386V16.5645H87.5698V0.673828H89.5386V7.23047ZM76.7769 12.1523C78.5113 12.1523 79.8648 12.1406 80.8374 12.1172V10.6318C80.2632 10.5322 79.7593 10.3506 79.3257 10.0869C78.898 9.82324 78.5669 9.49219 78.3325 9.09375C78.104 8.69531 77.9898 8.25 77.9898 7.75781C77.9898 7.16602 78.1509 6.64453 78.4732 6.19336C78.7954 5.74219 79.2466 5.39355 79.8267 5.14746C80.4126 4.89551 81.0835 4.76953 81.8394 4.76953C82.5894 4.76953 83.2544 4.89551 83.8345 5.14746C84.4204 5.39355 84.8775 5.74219 85.2056 6.19336C85.5337 6.64453 85.7007 7.16602 85.7066 7.75781C85.7007 8.25 85.5777 8.69824 85.3374 9.10254C85.0972 9.50098 84.7573 9.83203 84.3179 10.0957C83.8843 10.3594 83.3804 10.5381 82.8062 10.6318V12.0469C84.3238 11.9648 85.6304 11.8477 86.7261 11.6953L86.8491 13.1191C85.3433 13.3945 83.8052 13.5732 82.2349 13.6553C80.6646 13.7314 78.939 13.7695 77.0581 13.7695L76.7769 12.1523ZM77.0757 2.50195H80.8374V0.744141H82.8062V2.50195H86.5503V4.04883H77.0757V2.50195ZM79.8355 7.75781C79.8296 8.20312 80.0054 8.55469 80.3628 8.8125C80.7261 9.07031 81.2095 9.19922 81.813 9.19922C82.4282 9.19922 82.9175 9.07324 83.2808 8.82129C83.6441 8.56934 83.8257 8.21484 83.8257 7.75781C83.8257 7.30078 83.6441 6.94043 83.2808 6.67676C82.9175 6.40723 82.437 6.26953 81.8394 6.26367C81.23 6.26953 80.7407 6.40723 80.3716 6.67676C80.0083 6.94043 79.8296 7.30078 79.8355 7.75781ZM106.669 9.35742H92.1493V7.88086H106.669V9.35742ZM93.8368 10.3066H104.911V13.9277H95.8055V15.0352H105.386V16.3887H93.8544V12.6621H102.977V11.6777H93.8368V10.3066ZM93.9423 1.02539H104.876V4.61133H95.9286V5.64844H105.157V6.98438H93.995V3.3457H102.925V2.37891H93.9423V1.02539ZM124.582 8.70703H122.63V5.80664H119.554V4.20703H122.63V0.673828H124.582V8.70703ZM111.486 7.5293C113.25 7.13086 114.618 6.5332 115.59 5.73633C116.563 4.93945 117.126 3.99609 117.278 2.90625H112.365V1.32422H119.379C119.384 3.33398 118.769 4.98926 117.533 6.29004C116.302 7.59082 114.509 8.52539 112.154 9.09375L111.486 7.5293ZM114.123 9.33984H124.582V13.5234H116.091V14.8418H125.004V16.4062H114.14V12.0645H122.63V10.8867H114.123V9.33984ZM130.813 1.83398C131.522 1.83398 132.164 2.02441 132.738 2.40527C133.312 2.78613 133.781 3.33105 134.144 4.04004C134.508 4.74316 134.736 5.57227 134.83 6.52734H137.862V0.673828H139.796V16.582H137.862V8.10938H134.848C134.777 9.11719 134.563 9.99609 134.206 10.7461C133.849 11.4902 133.377 12.0645 132.791 12.4688C132.205 12.8672 131.546 13.0664 130.813 13.0664C130.017 13.0664 129.308 12.8379 128.686 12.3809C128.071 11.918 127.591 11.2617 127.245 10.4121C126.905 9.5625 126.735 8.57227 126.735 7.44141C126.735 6.31641 126.905 5.33203 127.245 4.48828C127.591 3.63867 128.074 2.98535 128.695 2.52832C129.316 2.06543 130.022 1.83398 130.813 1.83398ZM128.616 7.44141C128.616 8.24414 128.707 8.93555 128.889 9.51562C129.07 10.0957 129.325 10.5381 129.653 10.8428C129.987 11.1475 130.374 11.3027 130.813 11.3086C131.253 11.3027 131.64 11.1475 131.974 10.8428C132.308 10.5381 132.565 10.0957 132.747 9.51562C132.935 8.93555 133.028 8.24414 133.028 7.44141C133.028 6.64453 132.935 5.95605 132.747 5.37598C132.565 4.7959 132.308 4.35352 131.974 4.04883C131.64 3.74414 131.253 3.5918 130.813 3.5918C130.374 3.5918 129.987 3.74707 129.653 4.05762C129.325 4.3623 129.07 4.80469 128.889 5.38477C128.707 5.95898 128.616 6.64453 128.616 7.44141ZM156.153 11.1152H149.842V16.5469H147.909V11.1152H141.668V9.5332H156.153V11.1152ZM142.424 6.93164C143.438 6.80273 144.34 6.54785 145.131 6.16699C145.928 5.78613 146.555 5.3291 147.012 4.7959C147.475 4.25684 147.73 3.69727 147.777 3.11719H143.004V1.57031H154.817V3.11719H150.044C150.091 3.69727 150.34 4.25684 150.791 4.7959C151.248 5.3291 151.875 5.78613 152.672 6.16699C153.469 6.54785 154.377 6.80273 155.397 6.93164L154.694 8.46094C153.346 8.26758 152.165 7.87793 151.152 7.29199C150.144 6.70605 149.397 5.98242 148.91 5.12109C148.418 5.98242 147.671 6.70605 146.669 7.29199C145.667 7.87793 144.498 8.26758 143.162 8.46094L142.424 6.93164ZM161.822 4.83984C161.828 5.73047 161.936 6.59473 162.147 7.43262C162.364 8.27051 162.698 9.03809 163.149 9.73535C163.6 10.4326 164.172 10.998 164.863 11.4316L163.791 12.9258C163.099 12.5098 162.513 11.9531 162.033 11.2559C161.552 10.5586 161.174 9.75879 160.899 8.85645C160.606 9.84668 160.199 10.7227 159.677 11.4844C159.162 12.2461 158.541 12.8496 157.814 13.2949L156.601 11.8359C157.345 11.3848 157.966 10.7959 158.465 10.0693C158.963 9.33691 159.332 8.53125 159.572 7.65234C159.812 6.76758 159.935 5.85938 159.941 4.92773V2.08008H161.822V4.83984ZM163.158 6.14062H165.425V0.955078H167.271V15.791H165.425V7.75781H163.158V6.14062ZM168.695 0.673828H170.576V16.5645H168.695V0.673828ZM186.581 14.6309H172.062V13.0312H175.419V9.01465C174.774 8.64551 174.273 8.17969 173.916 7.61719C173.564 7.05469 173.392 6.42773 173.398 5.73633C173.398 4.9043 173.647 4.17188 174.145 3.53906C174.648 2.90039 175.349 2.4082 176.245 2.0625C177.142 1.71094 178.155 1.53516 179.286 1.53516C180.423 1.53516 181.439 1.71094 182.336 2.0625C183.238 2.4082 183.941 2.90039 184.445 3.53906C184.955 4.17188 185.21 4.9043 185.21 5.73633C185.216 6.41602 185.046 7.03125 184.7 7.58203C184.355 8.13281 183.868 8.5957 183.241 8.9707V13.0312H186.581V14.6309ZM175.314 5.73633C175.314 6.26953 175.478 6.73828 175.806 7.14258C176.14 7.54102 176.606 7.84863 177.203 8.06543C177.807 8.28223 178.501 8.39062 179.286 8.39062C180.071 8.39062 180.766 8.28223 181.369 8.06543C181.979 7.84863 182.45 7.54102 182.784 7.14258C183.124 6.73828 183.294 6.26953 183.294 5.73633C183.294 5.19727 183.124 4.72559 182.784 4.32129C182.45 3.91699 181.979 3.60938 181.369 3.39844C180.766 3.1875 180.071 3.08203 179.286 3.08203C178.495 3.08203 177.798 3.1875 177.194 3.39844C176.597 3.60938 176.134 3.91699 175.806 4.32129C175.478 4.71973 175.314 5.19141 175.314 5.73633ZM181.255 13.0312V9.71777C180.634 9.85254 179.978 9.91992 179.286 9.91992C178.624 9.91992 177.98 9.85547 177.353 9.72656V13.0312H181.255Z" fill="#202020"/>
</svg>
