<svg width="15" height="24" viewBox="0 0 15 24" fill="none" xmlns="http://www.w3.org/2000/svg">
<path d="M1.82878 23C1.9235 23 2.02216 22.9821 2.12477 22.9462C2.22738 22.9104 2.31815 22.8566 2.39709 22.7849L13.7632 12.4409C13.8421 12.3692 13.9013 12.2903 13.9408 12.2043C13.9803 12.1183 14 12.0287 14 11.9355C14 11.8423 13.9803 11.7491 13.9408 11.6559C13.9013 11.5627 13.8421 11.4803 13.7632 11.4086L2.56284 1.21505C2.40498 1.07168 2.2116 1 1.9827 1C1.75379 1 1.56041 1.07168 1.40255 1.21505C1.30783 1.31541 1.24074 1.42652 1.20128 1.54839C1.16181 1.67025 1.16181 1.7957 1.20128 1.92473C1.24074 2.05376 1.30783 2.16846 1.40255 2.26882L12.0583 11.9247L1.23679 21.7527C1.07893 21.8961 1 22.0681 1 22.2688C1 22.4695 1.08288 22.6416 1.24863 22.7849C1.41439 22.9283 1.60777 23 1.82878 23Z" fill="#B8B8B8" stroke="#B8B8B8" stroke-width="0.5"/>
</svg>
