<svg width="45" height="44" viewBox="0 0 45 44" fill="none" xmlns="http://www.w3.org/2000/svg">
<path d="M4.104 32.708C3.3 32.708 2.724 33.092 2.724 33.788C2.724 34.46 3.3 34.844 4.104 34.844C4.92 34.844 5.484 34.46 5.484 33.788C5.484 33.092 4.92 32.708 4.104 32.708ZM4.104 36.14C2.436 36.14 1.2 35.156 1.2 33.788C1.2 32.396 2.436 31.424 4.104 31.424C5.772 31.424 6.996 32.396 6.996 33.788C6.996 35.156 5.772 36.14 4.104 36.14ZM7.56 36.416L7.656 37.568C6.768 37.748 5.844 37.856 4.944 37.94V41.696H3.36V38.036C2.412 38.072 1.512 38.084 0.732 38.084L0.552 36.788C2.484 36.788 5.22 36.764 7.56 36.416ZM8.184 30.98H9.768V42.02H8.184V30.98ZM15.8631 34.04V34.424C15.8631 36.02 16.7391 37.82 18.5511 38.6L17.7111 39.812C16.4631 39.296 15.5871 38.24 15.0951 36.98C14.6031 38.312 13.7151 39.44 12.4551 40.004L11.6031 38.792C13.4151 37.976 14.2791 36.104 14.2791 34.424V34.04H11.9751V32.78H14.2791V31.244H15.8631V32.78H18.1191V34.04H15.8631ZM19.1391 30.98H20.7231V42.032H19.1391V30.98ZM29.0141 31.796V32.924H22.7381V31.796H25.0901V30.884H26.6741V31.796H29.0141ZM24.6821 34.832C24.6821 35.24 25.1381 35.456 25.8821 35.456C26.6261 35.456 27.0701 35.24 27.0701 34.832C27.0701 34.424 26.6261 34.22 25.8821 34.22C25.1381 34.22 24.6821 34.424 24.6821 34.832ZM29.2901 36.788L29.4101 37.856C27.0941 38.264 24.5741 38.288 22.6301 38.288L22.4621 37.076C23.2541 37.076 24.1541 37.076 25.0901 37.052V36.428C23.9141 36.248 23.1821 35.672 23.1821 34.832C23.1821 33.824 24.2501 33.2 25.8821 33.2C27.5141 33.2 28.5701 33.824 28.5701 34.832C28.5701 35.672 27.8501 36.248 26.6741 36.428V36.992C27.5741 36.956 28.4501 36.884 29.2901 36.788ZM23.8661 40.172V38.948H31.3541V42.044H29.7701V40.172H23.8661ZM32.7461 34.148V35.444H31.3541V38.516H29.7701V30.98H31.3541V34.148H32.7461ZM42.8132 30.992V38.924H41.2172V30.992H42.8132ZM35.3372 34.496C35.3372 35.384 35.9852 35.924 36.8012 35.924C37.6292 35.924 38.2532 35.384 38.2532 34.496C38.2532 33.584 37.6292 33.056 36.8012 33.056C35.9852 33.056 35.3372 33.584 35.3372 34.496ZM39.8012 34.496C39.8012 36.104 38.4932 37.292 36.8012 37.292C35.1092 37.292 33.7892 36.104 33.7892 34.496C33.7892 32.864 35.1092 31.688 36.8012 31.688C38.4932 31.688 39.8012 32.864 39.8012 34.496ZM37.0412 40.58H43.0892V41.84H35.4572V38.144H37.0412V40.58Z" fill="#1964F7"/>
<path fill-rule="evenodd" clip-rule="evenodd" d="M28.7009 4.29914L11.5298 10.4807L18.3664 13.1559C19.0435 13.4208 19.5792 13.9565 19.8441 14.6336L22.5193 21.4702L28.7009 4.29914ZM29.9028 1.09568C31.1481 0.647374 32.3526 1.85193 31.9043 3.09723L24.0317 24.9656C23.5424 26.3248 21.6297 26.351 21.1033 25.0058L17.4164 15.5836L7.99421 11.8967C6.64898 11.3703 6.67524 9.45759 8.03438 8.9683L29.9028 1.09568Z" fill="#1964F7" stroke="white" stroke-width="0.3"/>
</svg>
