<svg width="263" height="171" viewBox="0 0 263 171" fill="none" xmlns="http://www.w3.org/2000/svg">
<path d="M160.56 35.8739L134.745 85.3457C134.047 86.7032 133.093 87.9043 131.938 88.8791C130.784 89.8539 129.453 90.583 128.022 91.024C126.592 91.465 125.09 91.609 123.605 91.4477C122.119 91.2865 120.68 90.8231 119.37 90.0845C113.868 86.9682 111.831 79.805 114.82 74.0752L140.627 24.6034C141.325 23.246 142.279 22.0449 143.434 21.0701C144.588 20.0952 145.919 19.3661 147.35 18.9251C148.78 18.4841 150.282 18.3401 151.767 18.5014C153.253 18.6627 154.692 19.1261 156.002 19.8646C161.512 22.9788 163.549 30.1462 160.56 35.8739Z" fill="url(#paint0_linear_790_2295)"/>
<path d="M105.532 30.1795C102.744 31.3332 100.514 33.5745 99.3293 36.4136C98.1442 39.2526 98.1004 42.4586 99.2074 45.3308L114.311 84.5002C114.854 85.9318 115.668 87.2382 116.706 88.3433C117.744 89.4484 118.986 90.33 120.358 90.9369C121.731 91.5439 123.208 91.8639 124.702 91.8784C126.196 91.8929 127.678 91.6016 129.062 91.0215C134.875 88.5804 137.698 81.6997 135.368 75.6479L120.353 36.707C119.801 35.2752 118.979 33.9697 117.934 32.8655C116.89 31.7613 115.644 30.8802 114.267 30.2728C112.89 29.6654 111.41 29.3438 109.912 29.3264C108.414 29.3089 106.928 29.596 105.538 30.1712L105.532 30.1795Z" fill="url(#paint1_linear_790_2295)"/>
<path d="M118.936 20.7692C120.192 17.6506 118.752 14.0752 115.719 12.7834C112.685 11.4916 109.208 12.9726 107.952 16.0912C106.695 19.2099 108.136 22.7852 111.169 24.077C114.202 25.3688 117.679 23.8878 118.936 20.7692Z" fill="#5EFF8B"/>
<path d="M150.664 10.3247C151.92 7.2061 150.48 3.63074 147.447 2.33896C144.413 1.04718 140.936 2.52815 139.68 5.64678C138.423 8.76542 139.864 12.3408 142.897 13.6326C145.93 14.9243 149.407 13.4434 150.664 10.3247Z" fill="#00DBFF"/>
<path d="M57.4229 114.206V111.625C57.4229 105.384 61.6923 102.533 67.9486 102.533C74.2049 102.533 78.4773 105.384 78.4773 111.625V114.206C78.4773 120.444 74.2049 123.256 67.9486 123.256C61.6923 123.256 57.4229 120.444 57.4229 114.206ZM64.8411 138.164C60.6456 138.164 59.5191 136.662 59.5191 132.54V128.418C59.5191 125.8 61.2931 124.606 63.3628 124.606C65.4325 124.606 67.1118 125.822 67.1118 128.418V131.23C67.1118 132.078 67.2981 132.193 68.123 132.193H87.7524C90.0379 132.193 90.9013 133.619 90.9013 135.16C90.9013 136.702 90.0142 138.164 87.7524 138.164H64.8411ZM71.1329 114.513V111.315C71.1329 109.187 69.8231 108.196 67.9486 108.196C66.0741 108.196 64.7643 109.196 64.7643 111.315V114.513C64.7643 116.671 66.077 117.596 67.9486 117.596C69.8202 117.596 71.1329 116.671 71.1329 114.513ZM82.2973 105.807C82.2973 103.305 83.9856 101.995 85.9695 101.995C87.9534 101.995 89.6417 103.341 89.6417 105.807V111.625H90.8037C93.0862 111.625 93.7603 113.449 93.7603 114.969C93.7603 116.489 93.0478 118.313 90.8037 118.313H89.6417V129.214H82.2973V105.807Z" fill="#202020"/>
<path d="M101.856 106.202V105.971C101.856 103.506 103.804 102.35 105.788 102.39C107.772 102.429 109.422 103.661 109.422 105.971V106.202C109.415 107.285 109.328 108.367 109.162 109.436C114.555 110.13 118.153 113.753 117.777 121.377H110.471C110.808 117.912 109.685 115.833 107.287 115.331C105.114 119.338 101.519 121.687 97.9587 122.071C96.0103 122.302 94.4757 121.159 94.1742 119.8C93.6893 118.067 94.4373 116.371 95.9482 115.909C99.7593 114.744 101.856 111.625 101.856 106.202ZM101.93 138.173C97.3969 138.173 96.572 136.787 96.572 132.318V129.199C96.572 124.73 97.3969 123.344 101.93 123.344H122.949C127.481 123.344 128.306 124.73 128.306 129.199V138.173H101.93ZM104.854 132.741H120.923V129.737C120.923 128.889 120.737 128.737 119.989 128.737H104.854C104.103 128.737 103.967 128.889 103.967 129.737V131.701C103.952 132.616 104.103 132.732 104.854 132.732V132.741ZM120.551 105.816C120.551 103.314 122.348 102.004 124.332 102.004C126.316 102.004 128.117 103.35 128.117 105.816V121.928H120.551V105.816Z" fill="#202020"/>
<path d="M162.924 102.417C164.384 102.417 164.993 103.612 164.993 104.615C164.993 105.618 164.355 106.81 162.924 106.81H141.269C140.746 106.81 140.556 106.962 140.556 107.463V108.196H162.699C164.198 108.196 164.769 109.196 164.769 110.199C164.769 111.202 164.207 112.203 162.699 112.203H140.562V112.932C140.562 113.473 140.752 113.589 141.275 113.589H163.379C164.84 113.589 165.401 114.783 165.401 115.717C165.401 116.796 164.81 117.912 163.379 117.912H152.815V119.529H163.53C165.777 119.529 166.602 120.799 166.602 122.341C166.602 123.882 165.738 125.153 163.53 125.153H134.608C132.396 125.153 131.536 123.882 131.536 122.341C131.536 120.799 132.358 119.529 134.608 119.529H145.172V117.912H137.31C134.238 117.912 133.115 116.641 133.115 113.713V106.664C133.115 103.697 134.238 102.426 137.31 102.426L162.924 102.417ZM136.136 132.154C134.114 132.154 132.99 131.038 132.99 129.381C132.99 127.725 134.114 126.685 136.136 126.685H159.662C164.198 126.685 165.02 127.764 165.02 132.233V138.164H157.528V132.996C157.528 132.388 157.303 132.148 156.706 132.148L136.136 132.154Z" fill="#202020"/>
<path d="M198.412 101.995C199.873 101.995 200.482 103.189 200.482 104.192C200.482 105.196 199.846 106.387 198.412 106.387H176.757C176.234 106.387 176.045 106.539 176.045 107.041V107.774H198.187C199.686 107.774 200.257 108.774 200.257 109.777C200.257 110.78 199.695 111.78 198.187 111.78H176.045V112.51C176.045 113.051 176.234 113.166 176.757 113.166H198.861C200.322 113.166 200.884 114.361 200.884 115.294C200.884 116.374 200.292 117.489 198.861 117.489H188.297V119.106H199.012C201.259 119.106 202.084 120.377 202.084 121.918C202.084 123.46 201.221 124.73 199.012 124.73H170.09C167.878 124.73 167.018 123.46 167.018 121.918C167.018 120.377 167.843 119.106 170.09 119.106H180.654V117.489H172.787C169.715 117.489 168.591 116.219 168.591 113.291V106.241C168.591 103.274 169.715 102.004 172.787 102.004L198.412 101.995ZM171.625 131.731C169.602 131.731 168.479 130.616 168.479 128.959C168.479 127.302 169.602 126.263 171.625 126.263H195.154C199.686 126.263 200.511 127.342 200.511 131.81V137.741H193.019V132.573C193.019 131.965 192.791 131.725 192.194 131.725L171.625 131.731Z" fill="#202020"/>
<path d="M16.6406 159.918H9.49219V165.66H7.67578V159.918H0.625V158.453H16.6406V159.918ZM2.61719 148.863H4.45312V151.148H12.7734V148.863H14.6289V156.461H2.61719V148.863ZM12.7734 154.977V152.633H4.45312V154.977H12.7734ZM34.1602 152.164H31.6797V154.391H34.1602V155.934H31.6797V158.492H29.8242V148.16H31.6797V150.641H34.1602V152.164ZM18.2031 153.336C18.1966 152.529 18.3919 151.809 18.7891 151.178C19.1927 150.546 19.7493 150.055 20.459 149.703C21.1686 149.352 21.9661 149.176 22.8516 149.176C23.737 149.176 24.5312 149.352 25.2344 149.703C25.944 150.055 26.5007 150.546 26.9043 151.178C27.3079 151.809 27.513 152.529 27.5195 153.336C27.513 154.137 27.3079 154.853 26.9043 155.484C26.5007 156.116 25.944 156.611 25.2344 156.969C24.5312 157.32 23.737 157.496 22.8516 157.496C21.9661 157.496 21.1686 157.32 20.459 156.969C19.7493 156.611 19.1927 156.116 18.7891 155.484C18.3919 154.853 18.1966 154.137 18.2031 153.336ZM20.0195 153.336C20.013 153.844 20.1302 154.293 20.3711 154.684C20.6185 155.074 20.957 155.38 21.3867 155.602C21.8164 155.816 22.3047 155.927 22.8516 155.934C23.3984 155.927 23.8867 155.816 24.3164 155.602C24.7461 155.38 25.0846 155.074 25.332 154.684C25.5794 154.293 25.7031 153.844 25.7031 153.336C25.7031 152.828 25.5794 152.379 25.332 151.988C25.0846 151.591 24.7428 151.285 24.3066 151.07C23.877 150.849 23.3919 150.738 22.8516 150.738C22.3112 150.738 21.8229 150.849 21.3867 151.07C20.957 151.285 20.6185 151.591 20.3711 151.988C20.1302 152.379 20.013 152.828 20.0195 153.336ZM20.1562 162.301C20.1562 161.611 20.3939 161.015 20.8691 160.514C21.3444 160.012 22.0215 159.628 22.9004 159.361C23.7858 159.094 24.8307 158.961 26.0352 158.961C27.2201 158.961 28.2487 159.094 29.1211 159.361C29.9935 159.628 30.6641 160.012 31.1328 160.514C31.6016 161.015 31.8359 161.611 31.8359 162.301C31.8359 162.991 31.6016 163.587 31.1328 164.088C30.6641 164.589 29.9935 164.97 29.1211 165.23C28.2487 165.491 27.2201 165.621 26.0352 165.621C24.8372 165.621 23.7956 165.491 22.9102 165.23C22.0247 164.97 21.3444 164.589 20.8691 164.088C20.3939 163.587 20.1562 162.991 20.1562 162.301ZM22.0117 162.301C22.0052 162.887 22.3503 163.339 23.0469 163.658C23.7435 163.977 24.7201 164.137 25.9766 164.137C27.2656 164.137 28.2617 163.98 28.9648 163.668C29.6745 163.349 30.026 162.893 30.0195 162.301C30.026 161.721 29.681 161.272 28.9844 160.953C28.2943 160.628 27.3275 160.465 26.084 160.465C24.7949 160.465 23.7923 160.624 23.0762 160.943C22.36 161.262 22.0052 161.715 22.0117 162.301ZM48.8477 155.133H51.5625V156.676H48.8477V165.641H46.9922V148.16H48.8477V155.133ZM35.2344 160.973C37.4219 159.879 39.1113 158.544 40.3027 156.969C41.5007 155.393 42.194 153.583 42.3828 151.539H36.1133V149.996H44.2773C44.2643 152.665 43.6165 155.064 42.334 157.193C41.0514 159.316 39.0299 161.057 36.2695 162.418L35.2344 160.973ZM67.0312 150.348H61.709C61.7741 150.921 62.0736 151.454 62.6074 151.949C63.1413 152.444 63.8444 152.864 64.7168 153.209C65.5957 153.548 66.569 153.772 67.6367 153.883L66.9531 155.348C65.944 155.23 65.0065 155.016 64.1406 154.703C63.2747 154.384 62.5228 153.984 61.8848 153.502C61.2533 153.014 60.7812 152.464 60.4688 151.852C60.1562 152.464 59.6842 153.014 59.0527 153.502C58.4212 153.984 57.6725 154.384 56.8066 154.703C55.9473 155.016 55.013 155.23 54.0039 155.348L53.3398 153.883C54.3945 153.772 55.3581 153.548 56.2305 153.209C57.1094 152.864 57.8125 152.444 58.3398 151.949C58.8737 151.448 59.1699 150.914 59.2285 150.348H53.9648V148.844H67.0312V150.348ZM52.5 156.871H59.5508V154.332H61.3867V156.871H68.4961V158.375H52.5V156.871ZM54.2773 159.938H66.5039V165.66H64.6289V161.422H54.2773V159.938ZM77.7539 148.453C79.069 148.453 80.1921 148.567 81.123 148.795C82.054 149.023 82.7669 149.365 83.2617 149.82C83.7565 150.27 84.0039 150.816 84.0039 151.461C84.0039 152.112 83.7565 152.665 83.2617 153.121C82.7669 153.57 82.054 153.912 81.123 154.146C80.1921 154.374 79.069 154.488 77.7539 154.488C76.4388 154.488 75.3125 154.374 74.375 154.146C73.444 153.912 72.7311 153.57 72.2363 153.121C71.748 152.665 71.5039 152.112 71.5039 151.461C71.5039 150.816 71.748 150.27 72.2363 149.82C72.7311 149.365 73.444 149.023 74.375 148.795C75.3125 148.567 76.4388 148.453 77.7539 148.453ZM69.7852 155.562H85.7422V157.047H69.7852V155.562ZM71.6992 158.395H83.7305V162.496H73.5352V164.059H84.2188V165.484H71.7188V161.148H81.8945V159.781H71.6992V158.395ZM73.4375 151.461C73.431 152.001 73.7988 152.411 74.541 152.691C75.2832 152.965 76.3542 153.102 77.7539 153.102C79.1667 153.102 80.2441 152.965 80.9863 152.691C81.7285 152.411 82.0964 152.001 82.0898 151.461C82.0964 150.94 81.722 150.536 80.9668 150.25C80.2181 149.964 79.1471 149.82 77.7539 149.82C76.3672 149.82 75.2995 149.964 74.5508 150.25C73.8021 150.536 73.431 150.94 73.4375 151.461ZM97.6953 148.961C98.5677 148.961 99.349 149.114 100.039 149.42C100.729 149.719 101.27 150.146 101.66 150.699C102.051 151.253 102.246 151.884 102.246 152.594C102.246 153.297 102.051 153.925 101.66 154.479C101.27 155.032 100.729 155.462 100.039 155.768C99.349 156.067 98.5677 156.214 97.6953 156.207C96.8294 156.214 96.0514 156.067 95.3613 155.768C94.6777 155.462 94.1439 155.032 93.7598 154.479C93.3757 153.925 93.1836 153.297 93.1836 152.594C93.1836 151.884 93.3757 151.253 93.7598 150.699C94.1439 150.146 94.6777 149.719 95.3613 149.42C96.0514 149.114 96.8294 148.961 97.6953 148.961ZM91.9336 157.574C94.0365 157.574 96.0547 157.532 97.9883 157.447C99.9284 157.356 101.751 157.184 103.457 156.93L103.594 158.316C102.116 158.596 100.495 158.795 98.7305 158.912V165.113H96.875V159.02C95.7682 159.072 94.2057 159.104 92.1875 159.117L91.9336 157.574ZM94.9805 152.594C94.974 153.01 95.0846 153.378 95.3125 153.697C95.5469 154.016 95.8691 154.264 96.2793 154.439C96.696 154.609 97.168 154.69 97.6953 154.684C98.2357 154.69 98.7142 154.609 99.1309 154.439C99.554 154.264 99.8828 154.016 100.117 153.697C100.352 153.378 100.469 153.01 100.469 152.594C100.469 152.171 100.352 151.799 100.117 151.48C99.8828 151.155 99.554 150.904 99.1309 150.729C98.7142 150.553 98.2357 150.465 97.6953 150.465C97.168 150.465 96.696 150.553 96.2793 150.729C95.8691 150.904 95.5469 151.155 95.3125 151.48C95.0846 151.806 94.974 152.177 94.9805 152.594ZM104.668 148.18H106.504V165.66H104.668V148.18ZM122.988 153.805H125.527V155.348H122.988V161.266H121.133V148.18H122.988V153.805ZM109.258 150.211H113.555V148.16H115.41V150.211H119.688V151.715H109.258V150.211ZM110.215 155.855C110.215 155.198 110.391 154.618 110.742 154.117C111.1 153.616 111.602 153.232 112.246 152.965C112.891 152.691 113.633 152.555 114.473 152.555C115.306 152.555 116.042 152.691 116.68 152.965C117.324 153.232 117.822 153.616 118.174 154.117C118.532 154.618 118.711 155.198 118.711 155.855C118.711 156.507 118.532 157.079 118.174 157.574C117.822 158.069 117.324 158.453 116.68 158.727C116.042 159 115.306 159.137 114.473 159.137C113.633 159.137 112.891 159 112.246 158.727C111.602 158.453 111.1 158.069 110.742 157.574C110.391 157.079 110.215 156.507 110.215 155.855ZM111.895 160.23H113.75V163.785H123.73V165.289H111.895V160.23ZM112.012 155.855C112.005 156.227 112.103 156.552 112.305 156.832C112.507 157.105 112.79 157.317 113.154 157.467C113.525 157.617 113.955 157.691 114.443 157.691C115.199 157.691 115.807 157.529 116.27 157.203C116.732 156.878 116.966 156.428 116.973 155.855C116.966 155.283 116.735 154.83 116.279 154.498C115.824 154.16 115.221 153.987 114.473 153.98C113.978 153.98 113.542 154.059 113.164 154.215C112.793 154.365 112.507 154.583 112.305 154.869C112.103 155.149 112.005 155.478 112.012 155.855ZM145.156 151.812H147.695V153.355H145.156V157.008H143.301V148.16H145.156V151.812ZM131.68 152.672C131.673 151.917 131.865 151.243 132.256 150.65C132.653 150.058 133.2 149.596 133.896 149.264C134.6 148.932 135.391 148.766 136.27 148.766C137.148 148.766 137.936 148.932 138.633 149.264C139.329 149.596 139.873 150.058 140.264 150.65C140.661 151.236 140.859 151.91 140.859 152.672C140.859 153.427 140.661 154.101 140.264 154.693C139.873 155.286 139.329 155.748 138.633 156.08C137.936 156.412 137.148 156.578 136.27 156.578C135.397 156.578 134.609 156.412 133.906 156.08C133.21 155.748 132.663 155.286 132.266 154.693C131.868 154.101 131.673 153.427 131.68 152.672ZM133.477 152.672C133.477 153.141 133.594 153.561 133.828 153.932C134.069 154.296 134.401 154.583 134.824 154.791C135.254 154.993 135.736 155.094 136.27 155.094C136.803 155.094 137.282 154.993 137.705 154.791C138.128 154.583 138.46 154.296 138.701 153.932C138.942 153.561 139.062 153.141 139.062 152.672C139.062 152.203 138.942 151.79 138.701 151.432C138.46 151.067 138.128 150.787 137.705 150.592C137.282 150.39 136.803 150.289 136.27 150.289C135.736 150.289 135.254 150.39 134.824 150.592C134.401 150.787 134.069 151.067 133.828 151.432C133.594 151.79 133.477 152.203 133.477 152.672ZM133.848 157.809H145.156V162.242H135.703V163.961H145.762V165.445H133.887V160.855H143.32V159.254H133.848V157.809ZM163.203 158.551H161.348V148.18H163.203V158.551ZM149.57 149.215H157.617V154.137H151.426V156.246C153.086 156.246 154.515 156.21 155.713 156.139C156.911 156.067 158.138 155.927 159.395 155.719L159.629 157.242C158.32 157.444 157.048 157.584 155.811 157.662C154.574 157.734 153.138 157.77 151.504 157.77H151.074H149.609V152.691H155.781V150.699H149.57V149.215ZM151.699 159.43H163.203V165.445H151.699V159.43ZM161.387 163.941V160.914H153.535V163.941H161.387ZM178.75 159.156C180.007 159.156 181.1 159.286 182.031 159.547C182.962 159.801 183.678 160.172 184.18 160.66C184.688 161.148 184.941 161.728 184.941 162.398C184.941 163.069 184.688 163.645 184.18 164.127C183.678 164.615 182.962 164.986 182.031 165.24C181.1 165.494 180.007 165.621 178.75 165.621C177.507 165.621 176.419 165.494 175.488 165.24C174.564 164.986 173.851 164.615 173.35 164.127C172.848 163.645 172.598 163.069 172.598 162.398C172.598 161.728 172.848 161.148 173.35 160.66C173.851 160.172 174.564 159.801 175.488 159.547C176.413 159.286 177.5 159.156 178.75 159.156ZM170.879 156.207H177.266V152.926H179.082V156.207H186.797V157.711H170.879V156.207ZM172.734 149.02H184.805V150.484V151.002C184.805 151.757 184.772 152.457 184.707 153.102C184.648 153.74 184.518 154.417 184.316 155.133L182.5 154.938C182.708 154.143 182.839 153.43 182.891 152.799C182.943 152.161 182.969 151.396 182.969 150.504H172.734V149.02ZM174.453 162.398C174.447 162.77 174.616 163.092 174.961 163.365C175.312 163.632 175.811 163.837 176.455 163.98C177.106 164.124 177.871 164.195 178.75 164.195C179.642 164.195 180.413 164.124 181.064 163.98C181.715 163.837 182.217 163.632 182.568 163.365C182.92 163.092 183.099 162.77 183.105 162.398C183.099 162.021 182.92 161.695 182.568 161.422C182.217 161.142 181.715 160.93 181.064 160.787C180.413 160.637 179.642 160.562 178.75 160.562C177.871 160.562 177.106 160.637 176.455 160.787C175.811 160.93 175.312 161.142 174.961 161.422C174.616 161.695 174.447 162.021 174.453 162.398ZM196.035 159.156C197.292 159.156 198.385 159.286 199.316 159.547C200.247 159.801 200.964 160.172 201.465 160.66C201.973 161.148 202.227 161.728 202.227 162.398C202.227 163.069 201.973 163.645 201.465 164.127C200.964 164.615 200.247 164.986 199.316 165.24C198.385 165.494 197.292 165.621 196.035 165.621C194.792 165.621 193.704 165.494 192.773 165.24C191.849 164.986 191.136 164.615 190.635 164.127C190.133 163.645 189.883 163.069 189.883 162.398C189.883 161.728 190.133 161.148 190.635 160.66C191.136 160.172 191.849 159.801 192.773 159.547C193.698 159.286 194.785 159.156 196.035 159.156ZM188.164 156.207H194.551V152.926H196.367V156.207H204.082V157.711H188.164V156.207ZM190.02 149.02H202.09V150.484V151.002C202.09 151.757 202.057 152.457 201.992 153.102C201.934 153.74 201.803 154.417 201.602 155.133L199.785 154.938C199.993 154.143 200.124 153.43 200.176 152.799C200.228 152.161 200.254 151.396 200.254 150.504H190.02V149.02ZM191.738 162.398C191.732 162.77 191.901 163.092 192.246 163.365C192.598 163.632 193.096 163.837 193.74 163.98C194.391 164.124 195.156 164.195 196.035 164.195C196.927 164.195 197.699 164.124 198.35 163.98C199.001 163.837 199.502 163.632 199.854 163.365C200.205 163.092 200.384 162.77 200.391 162.398C200.384 162.021 200.205 161.695 199.854 161.422C199.502 161.142 199.001 160.93 198.35 160.787C197.699 160.637 196.927 160.562 196.035 160.562C195.156 160.562 194.391 160.637 193.74 160.787C193.096 160.93 192.598 161.142 192.246 161.422C191.901 161.695 191.732 162.021 191.738 162.398ZM211.738 152.613C211.738 153.674 211.924 154.716 212.295 155.738C212.673 156.754 213.2 157.656 213.877 158.443C214.554 159.231 215.332 159.82 216.211 160.211L215.078 161.695C214.102 161.201 213.245 160.488 212.51 159.557C211.774 158.619 211.211 157.545 210.82 156.334C210.43 157.617 209.86 158.759 209.111 159.762C208.369 160.758 207.5 161.513 206.504 162.027L205.332 160.523C206.217 160.1 207.002 159.475 207.686 158.648C208.376 157.815 208.91 156.871 209.287 155.816C209.671 154.755 209.863 153.688 209.863 152.613V149.625H211.738V152.613ZM214.277 153.98H218.184V148.16H220.02V165.699H218.184V155.484H214.277V153.98ZM237.207 165.699H235.352V148.16H237.207V165.699ZM223.691 149.625H225.547V154.117H230.254V149.625H232.09V161.5H223.691V149.625ZM230.254 159.977V155.582H225.547V159.977H230.254ZM248.887 150.641C248.887 151.565 249.183 152.464 249.775 153.336C250.368 154.208 251.156 154.954 252.139 155.572C253.128 156.184 254.18 156.591 255.293 156.793L254.434 158.336C253.496 158.134 252.601 157.802 251.748 157.34C250.895 156.878 250.137 156.314 249.473 155.65C248.815 154.98 248.301 154.241 247.93 153.434C247.552 154.234 247.031 154.97 246.367 155.641C245.703 156.305 244.945 156.868 244.092 157.33C243.239 157.792 242.344 158.128 241.406 158.336L240.586 156.793C241.686 156.585 242.721 156.174 243.691 155.562C244.668 154.944 245.452 154.202 246.045 153.336C246.637 152.464 246.934 151.565 246.934 150.641V149.312H248.887V150.641ZM240 161.812H256.016V163.355H240V161.812Z" fill="#202020"/>
<defs>
<linearGradient id="paint0_linear_790_2295" x1="154.652" y1="24.1609" x2="117.888" y2="87.3412" gradientUnits="userSpaceOnUse">
<stop stop-color="#6AFFFF"/>
<stop offset="1" stop-color="#0075E2"/>
</linearGradient>
<linearGradient id="paint1_linear_790_2295" x1="105.819" y1="34.0665" x2="130.912" y2="88.8056" gradientUnits="userSpaceOnUse">
<stop stop-color="#5EFF8B"/>
<stop offset="1" stop-color="#00DBFF"/>
</linearGradient>
</defs>
</svg>
