<svg width="111" height="27" viewBox="0 0 111 27" fill="none" xmlns="http://www.w3.org/2000/svg">
<rect width="111" height="27" fill="#F5F5F5"/>
<g id="&#236;&#138;&#164;&#237;&#148;&#140;&#235;&#158;&#152;&#236;&#137;&#172;" clip-path="url(#clip0_55_11)">
<rect width="390" height="844" transform="translate(-143 -423)" fill="white"/>
<g id="Group 42">
<g id="Group 41">
<path id="Vector" d="M0 8.99053V7.09036C0 2.49549 3.23185 0.396152 7.96772 0.396152C12.7036 0.396152 15.9377 2.49549 15.9377 7.09036V8.99053C15.9377 13.5832 12.7036 15.6534 7.96772 15.6534C3.23185 15.6534 0 13.5832 0 8.99053ZM5.61545 26.6292C2.43955 26.6292 1.58682 25.5236 1.58682 22.4887V19.4538C1.58682 17.5267 2.9297 16.6472 4.49639 16.6472C6.06307 16.6472 7.33431 17.5424 7.33431 19.4538V21.524C7.33431 22.1485 7.47532 22.2335 8.09976 22.2335H22.9587C24.6887 22.2335 25.3423 23.2832 25.3423 24.4179C25.3423 25.5527 24.6708 26.6292 22.9587 26.6292H5.61545ZM10.3782 9.21658V6.86207C10.3782 5.29538 9.38669 4.56578 7.96772 4.56578C6.54875 4.56578 5.55725 5.3021 5.55725 6.86207V9.21658C5.55725 10.8056 6.55099 11.486 7.96772 11.486C9.38445 11.486 10.3782 10.8056 10.3782 9.21658ZM18.8293 2.80659C18.8293 0.964613 20.1073 0 21.6091 0C23.1109 0 24.3888 0.991471 24.3888 2.80659V7.09036H25.2684C26.9962 7.09036 27.5065 8.43324 27.5065 9.5523C27.5065 10.6714 26.9671 12.0142 25.2684 12.0142H24.3888V20.0401H18.8293V2.80659Z" fill="#202020"/>
<path id="Vector_2" d="M33.6345 3.09745V2.92736C33.6345 1.11224 35.1095 0.261742 36.6112 0.290838C38.113 0.319934 39.3619 1.22638 39.3619 2.92736V3.09745C39.3567 3.89509 39.2908 4.69117 39.1649 5.47882C43.2473 5.98911 45.9711 8.65697 45.6868 14.2702H40.1564C40.4116 11.7187 39.5611 10.1878 37.746 9.81855C36.1009 12.7684 33.3794 14.4985 30.6847 14.7805C29.2098 14.9506 28.0482 14.109 27.8199 13.1086C27.4528 11.8329 28.0191 10.584 29.1628 10.2438C32.0477 9.3866 33.6345 7.09027 33.6345 3.09745ZM33.6905 26.6358C30.2594 26.6358 29.635 25.6152 29.635 22.3252V20.0289C29.635 16.7388 30.2594 15.7182 33.6905 15.7182H49.6013C53.0324 15.7182 53.6568 16.7388 53.6568 20.0289V26.6358H33.6905ZM35.904 22.6363H48.0682V20.425C48.0682 19.8006 47.9272 19.6887 47.361 19.6887H35.904C35.3355 19.6887 35.2325 19.8006 35.2325 20.425V21.8708C35.2214 22.5445 35.3355 22.6296 35.904 22.6296V22.6363ZM47.7862 2.81321C47.7862 0.971232 49.147 0.0065918 50.6487 0.0065918C52.1505 0.0065918 53.5136 0.99809 53.5136 2.81321V14.6753H47.7862V2.81321Z" fill="#202020"/>
<path id="Vector_3" d="M79.861 0.310791C80.9666 0.310791 81.4277 1.19037 81.4277 1.92895C81.4277 2.66753 80.9443 3.54487 79.861 3.54487H63.469C63.0728 3.54487 62.9296 3.65678 62.9296 4.02607V4.56547H79.6909C80.8256 4.56547 81.2576 5.3018 81.2576 6.04038C81.2576 6.77896 80.8324 7.5153 79.6909 7.5153H62.9341V8.05246C62.9341 8.45084 63.0773 8.5359 63.4735 8.5359H80.2057C81.3113 8.5359 81.7366 9.41548 81.7366 10.1026C81.7366 10.8971 81.2889 11.7185 80.2057 11.7185H72.2088V12.9092H80.3198C82.0208 12.9092 82.6452 13.8447 82.6452 14.9794C82.6452 16.1142 81.9917 17.0497 80.3198 17.0497H58.4265C56.7524 17.0497 56.1011 16.1142 56.1011 14.9794C56.1011 13.8447 56.7233 12.9092 58.4265 12.9092H66.4233V11.7185H60.4721C58.1467 11.7185 57.2963 10.783 57.2963 8.62764V3.43744C57.2963 1.25303 58.1467 0.317485 60.4721 0.317485L79.861 0.310791ZM59.5836 22.2041C58.0527 22.2041 57.2022 21.3827 57.2022 20.1629C57.2022 18.9432 58.0527 18.1777 59.5836 18.1777H77.3924C80.8256 18.1777 81.4478 18.9723 81.4478 22.2623V26.6289H75.7764V22.8241C75.7764 22.3765 75.6063 22.1996 75.1542 22.1996L59.5836 22.2041Z" fill="#202020"/>
<path id="Vector_4" d="M108.22 0.310791C109.326 0.310791 109.787 1.19037 109.787 1.92895C109.787 2.66753 109.305 3.54487 108.22 3.54487H91.8279C91.4318 3.54487 91.2885 3.65678 91.2885 4.02607V4.56547H108.05C109.185 4.56547 109.617 5.3018 109.617 6.04038C109.617 6.77896 109.191 7.5153 108.05 7.5153H91.2885V8.05246C91.2885 8.45084 91.4318 8.5359 91.8279 8.5359H108.56C109.666 8.5359 110.091 9.41548 110.091 10.1026C110.091 10.8971 109.643 11.7185 108.56 11.7185H100.563V12.9092H108.674C110.375 12.9092 111 13.8447 111 14.9794C111 16.1142 110.346 17.0497 108.674 17.0497H86.781C85.1069 17.0497 84.4556 16.1142 84.4556 14.9794C84.4556 13.8447 85.08 12.9092 86.781 12.9092H94.7778V11.7185H88.8221C86.4967 11.7185 85.6462 10.783 85.6462 8.62764V3.43744C85.6462 1.25303 86.4967 0.317485 88.8221 0.317485L108.22 0.310791ZM87.9426 22.2041C86.4117 22.2041 85.5612 21.3827 85.5612 20.1629C85.5612 18.9432 86.4117 18.1777 87.9426 18.1777H105.754C109.185 18.1777 109.809 18.9723 109.809 22.2623V26.6289H104.138V22.8241C104.138 22.3765 103.965 22.1996 103.513 22.1996L87.9426 22.2041Z" fill="#202020"/>
</g>
</g>
</g>
<defs>
<clipPath id="clip0_55_11">
<rect width="390" height="844" fill="white" transform="translate(-143 -423)"/>
</clipPath>
</defs>
</svg>
