<svg width="170" height="17" viewBox="0 0 170 17" fill="none" xmlns="http://www.w3.org/2000/svg">
<path d="M13.7637 0.691406V12.1699H11.7949V0.691406H13.7637ZM14.2031 14.666V16.248H3.25195V11.0098H5.2207V14.666H14.2031ZM5.09766 1.72852C7.50586 1.72852 9.36914 3.39844 9.36914 5.70117C9.36914 8.05664 7.50586 9.69141 5.09766 9.69141C2.67188 9.69141 0.808594 8.05664 0.808594 5.70117C0.808594 3.39844 2.67188 1.72852 5.09766 1.72852ZM5.09766 3.43359C3.74414 3.43359 2.70703 4.33008 2.72461 5.70117C2.70703 7.10742 3.74414 7.98633 5.09766 7.98633C6.41602 7.98633 7.45312 7.10742 7.45312 5.70117C7.45312 4.33008 6.41602 3.43359 5.09766 3.43359ZM30.2084 8.07422V9.65625H15.724V8.07422H30.2084ZM22.9486 10.7109C26.3763 10.7109 28.433 11.7832 28.4505 13.6289C28.433 15.4922 26.3763 16.5469 22.9486 16.5469C19.4857 16.5469 17.4115 15.4922 17.4115 13.6289C17.4115 11.7832 19.4857 10.7109 22.9486 10.7109ZM22.9486 12.2402C20.6283 12.2402 19.3802 12.7148 19.3978 13.6289C19.3802 14.543 20.6283 15.0176 22.9486 15.0176C25.2162 15.0176 26.4818 14.543 26.4994 13.6289C26.4818 12.7148 25.2162 12.2402 22.9486 12.2402ZM28.9076 1.42969V3.0293H24.3197C24.6097 4.34766 26.517 5.53418 29.5228 5.82422L28.8373 7.37109C25.9545 7.06348 23.8099 5.92969 22.9486 4.3125C22.0873 5.9209 19.9779 7.06348 17.0951 7.37109L16.4271 5.82422C19.3714 5.53418 21.2875 4.34766 21.5951 3.0293H17.0423V1.42969H28.9076ZM44.2273 0.691406V12.416H42.2761V6.5625H39.0769V9.83203H31.6413V1.72852H33.5925V4.29492H37.1433V1.72852H39.0769V4.98047H42.2761V0.691406H44.2273ZM44.5788 14.666V16.248H33.7507V11.2559H35.737V14.666H44.5788ZM33.5925 8.28516H37.1433V5.80664H33.5925V8.28516ZM59.8985 2.80078V4.38281H46.7677V2.80078H52.3751V0.884766H54.3087V2.80078H59.8985ZM60.6368 13.2773V14.8594H46.1173V13.2773H52.3751V11.3262C49.6241 11.1064 47.963 10.0078 47.9805 8.25C47.963 6.33398 50.0196 5.19141 53.3419 5.19141C56.6114 5.19141 58.6856 6.33398 58.6856 8.25C58.6856 9.99902 57.0157 11.0977 54.3087 11.3086V13.2773H60.6368ZM53.3419 6.7207C51.1798 6.73828 49.9669 7.24805 49.9845 8.25C49.9669 9.26953 51.1798 9.7793 53.3419 9.79688C55.4688 9.7793 56.6817 9.26953 56.6817 8.25C56.6817 7.24805 55.4688 6.73828 53.3419 6.7207ZM74.1811 5.17383V6.7207H63.1772V1.25391H65.1108V5.17383H74.1811ZM75.8159 8.56641V10.1133H61.2963V8.56641H75.8159ZM74.2866 14.6133V16.1953H63.0366V11.5195H64.9877V14.6133H74.2866ZM86.1173 2.27344V15H83.8146V4.50586H83.7443L80.7736 6.4043V4.3125L83.9201 2.27344H86.1173ZM88.8511 15V13.3477L93.3511 9.00586C94.6343 7.72266 95.3023 6.9668 95.3023 5.89453C95.3023 4.7168 94.3706 3.96094 93.1226 3.96094C91.8042 3.96094 90.9605 4.78711 90.9781 6.07031H88.7984C88.7808 3.66211 90.5913 2.09766 93.1402 2.09766C95.7417 2.09766 97.4995 3.64453 97.4995 5.78906C97.4995 7.23047 96.7964 8.39062 94.3003 10.7461L92.0327 12.9961V13.084H97.6929V15H88.8511ZM103.96 15.1758C101.235 15.1758 99.3016 13.6992 99.2489 11.5547H101.552C101.622 12.5742 102.641 13.2422 103.96 13.2422C105.366 13.2422 106.368 12.4688 106.368 11.3438C106.368 10.2012 105.384 9.375 103.731 9.375H102.589V7.61719H103.731C105.085 7.61719 106.034 6.86133 106.016 5.75391C106.034 4.68164 105.225 3.96094 103.977 3.96094C102.782 3.96094 101.745 4.62891 101.71 5.70117H99.5126C99.5653 3.55664 101.499 2.09766 103.995 2.09766C106.579 2.09766 108.249 3.67969 108.231 5.63086C108.249 7.05469 107.3 8.0918 105.911 8.37305V8.47852C107.704 8.72461 108.724 9.86719 108.706 11.4668C108.724 13.6113 106.72 15.1758 103.96 15.1758ZM110.121 12.627V10.7988L115.623 2.27344H118.471V10.7461H120.141V12.627H118.471V15H116.291V12.627H110.121ZM112.459 10.7461H116.326V4.875H116.186L112.459 10.6582V10.7461ZM134.318 0.673828V9.19922H132.349V0.673828H134.318ZM125.74 9.9375V11.5723H132.367V9.9375H134.318V16.3711H123.806V9.9375H125.74ZM125.74 14.7891H132.367V13.1016H125.74V14.7891ZM125.652 1.37695C128.095 1.35938 129.923 2.88867 129.923 5.10352C129.923 7.26562 128.095 8.79492 125.652 8.79492C123.191 8.79492 121.363 7.26562 121.363 5.10352C121.363 2.88867 123.191 1.35938 125.652 1.37695ZM125.652 3.01172C124.263 3.01172 123.261 3.82031 123.279 5.10352C123.261 6.36914 124.263 7.17773 125.652 7.19531C127.023 7.17773 128.007 6.36914 128.007 5.10352C128.007 3.82031 127.023 3.01172 125.652 3.01172ZM149.532 0.673828V16.5645H147.599V0.673828H149.532ZM139.126 2.2207V10.9043C141.358 10.8691 143.731 10.667 146.175 10.1836L146.421 11.8184C143.626 12.3984 141.024 12.5742 138.563 12.5742H137.192V2.2207H139.126ZM163.92 0.673828V6.70312H166.364V8.30273H163.92V16.582H161.969V0.673828H163.92ZM159.561 2.18555V3.76758H154.076V11.0625C156.546 11.0625 158.497 10.9395 160.686 10.5527L160.914 12.2051C158.453 12.627 156.309 12.6973 153.444 12.6973H152.125V2.18555H159.561ZM168.605 15.1406C167.849 15.1406 167.234 14.5254 167.234 13.7695C167.234 13.0312 167.849 12.416 168.605 12.416C169.326 12.416 169.959 13.0312 169.959 13.7695C169.959 14.5254 169.326 15.1406 168.605 15.1406Z" fill="#202020"/>
</svg>
