<svg width="249" height="23" viewBox="0 0 249 23" fill="none" xmlns="http://www.w3.org/2000/svg">
<path d="M9.27734 6.08398C9.26514 9.67285 11.1206 13.5181 14.8438 15.0684L13.1592 17.5098C10.5469 16.3989 8.74023 14.1895 7.73926 11.5039C6.73828 14.4214 4.89502 16.8628 2.27051 18.0713L0.488281 15.6055C4.1748 13.9575 6.0791 9.84375 6.0791 6.08398V4.7168H1.36719V2.17773H13.916V4.7168H9.27734V6.08398ZM16.1133 22.2461V0.0292969H19.2627V22.2461H16.1133ZM39.6855 1.03027V2.8125C39.6978 4.5459 39.6978 6.4624 39.1606 9.01367H42.1025V11.5283H21.7656V9.01367H36.0234C36.4995 6.8042 36.5605 5.08301 36.585 3.52051H24.2559V1.03027H39.6855ZM24.1826 22.002V13.8721H39.6123V22.002H24.1826ZM27.2344 19.5117H36.5117V16.3135H27.2344V19.5117ZM65.6631 0.0292969V8.33008H68.9346V10.9424H65.6631V22.2461H62.5381V0.0292969H65.6631ZM48.8418 17.0947V1.78711H51.9424V7.20703H56.5566V1.78711H59.6572V17.0947H48.8418ZM51.9424 14.5801H56.5566V9.62402H51.9424V14.5801ZM89.5771 17.2168V19.7803H69.2402V17.2168H77.8096V13.8721H71.584V6.40137H84.1572V3.95996H71.5596V1.46973H87.2334V8.84277H74.709V11.333H87.7461V13.8721H80.9102V17.2168H89.5771ZM113.138 0.0292969V8.28125H116.409V10.8203H113.138V22.2949H110.013V0.0292969H113.138ZM96.4873 16.8994V2.08008H106.912V4.59473H99.5879V14.3359C102.811 14.3115 105.472 14.1406 108.426 13.6279L108.768 16.2402C105.313 16.8262 102.286 16.9116 98.3672 16.8994H96.4873ZM137.027 10.8447V13.335H128.604V17.1924H125.455V13.335H116.69V10.8447H137.027ZM118.79 5.05859C118.79 2.23877 122.013 0.46875 126.847 0.444336C131.656 0.46875 134.867 2.23877 134.879 5.05859C134.867 7.89062 131.656 9.64844 126.847 9.64844C122.013 9.64844 118.79 7.89062 118.79 5.05859ZM119.107 21.8555V15.2148H122.257V19.3408H134.781V21.8555H119.107ZM122.159 5.05859C122.147 6.41357 123.978 7.146 126.847 7.1582C129.715 7.146 131.534 6.41357 131.534 5.05859C131.534 3.64258 129.715 2.91016 126.847 2.91016C123.978 2.91016 122.147 3.64258 122.159 5.05859ZM158.158 17.2168V19.7803H137.821V17.2168H146.391V13.8721H140.165V6.40137H152.738V3.95996H140.141V1.46973H155.814V8.84277H143.29V11.333H156.327V13.8721H149.491V17.2168H158.158ZM177.043 10.3076V12.7979H161.32V1.88477H176.872V4.39941H164.396V10.3076H177.043ZM158.928 19.5361V16.9727H179.265V19.5361H158.928ZM197.563 0.0292969V8.7207H200.835V11.2842H197.563V22.2461H194.487V0.0292969H197.563ZM179.912 5.83984V3.34961H184.941V0.371094H188.066V3.34961H192.974V5.83984H179.912ZM180.815 12.3828C180.803 9.28223 183.22 7.07275 186.504 7.08496C189.739 7.07275 192.168 9.28223 192.168 12.3828C192.168 15.4834 189.739 17.6685 186.504 17.6807C183.22 17.6685 180.803 15.4834 180.815 12.3828ZM183.794 12.3828C183.794 14.104 184.929 15.1294 186.504 15.1172C188.054 15.1294 189.189 14.104 189.189 12.3828C189.189 10.6738 188.054 9.62402 186.504 9.59961C184.929 9.62402 183.794 10.6738 183.794 12.3828ZM208.27 5.62012C208.257 9.22119 209.258 12.9321 212.298 14.873L210.613 17.29C208.685 16.1304 207.476 14.2017 206.768 11.9312C205.975 14.4458 204.644 16.5576 202.63 17.7783L200.726 15.4834C204.021 13.4448 205.242 9.52637 205.242 5.7666V1.93359H208.27V5.62012ZM209.954 10.0635V7.52441H212.835V0.34668H215.74V21.2207H212.835V10.0635H209.954ZM217.425 22.2461V0.0292969H220.403V22.2461H217.425ZM242.584 17.0947V19.6582H222.247V17.0947H226.788V11.6504C225.067 10.6128 224.029 9.03809 224.029 7.08496C224.029 3.48389 227.545 1.11572 232.379 1.10352C237.188 1.11572 240.741 3.48389 240.753 7.08496C240.741 9.00146 239.74 10.5518 238.067 11.5894V17.0947H242.584ZM227.105 7.08496C227.105 9.25781 229.193 10.6006 232.379 10.6006C235.516 10.6006 237.665 9.25781 237.677 7.08496C237.665 4.85107 235.516 3.55713 232.379 3.56934C229.193 3.55713 227.105 4.85107 227.105 7.08496ZM229.864 17.0947H234.918V12.7734C234.125 12.9321 233.27 13.0176 232.379 13.0176C231.488 13.0176 230.646 12.9321 229.864 12.7856V17.0947ZM248.407 2.32422L248.09 14.7021H244.965L244.647 2.32422H248.407ZM244.501 18.1689C244.477 17.0459 245.404 16.1304 246.552 16.1426C247.638 16.1304 248.578 17.0459 248.578 18.1689C248.578 19.3042 247.638 20.2197 246.552 20.2197C245.404 20.2197 244.477 19.3042 244.501 18.1689Z" fill="#202020"/>
</svg>
