<svg width="237" height="44" viewBox="0 0 237 44" fill="none" xmlns="http://www.w3.org/2000/svg">
<path d="M6.22266 2.27344V15H3.91992V4.50586H3.84961L0.878906 6.4043V4.3125L4.02539 2.27344H6.22266ZM14.1244 2.27344V15H11.8216V4.50586H11.7513L8.78062 6.4043V4.3125L11.9271 2.27344H14.1244ZM21.3757 2.09766C23.8718 2.11523 26.3327 3.5918 26.3503 8.25C26.3503 12.6445 24.364 15.1758 21.2351 15.1758C18.7741 15.1758 17.0866 13.6465 16.8054 11.5371H19.073C19.3015 12.5391 20.0749 13.1895 21.2351 13.1895C23.0808 13.1895 24.1179 11.5547 24.1355 8.83008H23.9948C23.3445 9.9375 22.1316 10.5879 20.7253 10.5879C18.4577 10.5879 16.6999 8.86523 16.6823 6.45703C16.6823 3.96094 18.5456 2.08008 21.3757 2.09766ZM21.3933 3.94336C19.9695 3.94336 18.8972 5.05078 18.9148 6.4043C18.9148 7.77539 19.9343 8.84766 21.3581 8.84766C22.7644 8.84766 23.8718 7.70508 23.8542 6.38672C23.8542 5.08594 22.8171 3.94336 21.3933 3.94336ZM41.8634 7.88086V9.35742H27.3438V7.88086H41.8634ZM40.1055 10.3066V13.9277H31.0001V15.0352H40.5802V16.3887H29.0489V12.6621H38.172V11.6777H29.0313V10.3066H40.1055ZM40.0704 1.02539V4.61133H31.1231V5.64844H40.3516V6.98438H29.1895V3.3457H38.1192V2.37891H29.1368V1.02539H40.0704ZM59.7762 0.673828V10.1133H57.825V6.22852H55.118V4.62891H57.825V0.673828H59.7762ZM54.3973 10.5176C57.7723 10.5176 59.8289 11.625 59.8289 13.541C59.8289 15.457 57.7723 16.5645 54.3973 16.5645C51.0398 16.5645 48.9832 15.457 49.0008 13.541C48.9832 11.625 51.0398 10.5176 54.3973 10.5176ZM54.3973 12.0117C52.1824 12.0117 50.9344 12.5391 50.9344 13.541C50.9344 14.5254 52.1824 15.0527 54.3973 15.0527C56.6121 15.0527 57.8777 14.5254 57.8777 13.541C57.8777 12.5391 56.6121 12.0117 54.3973 12.0117ZM52.3055 3.39844C52.3055 5.33203 53.5887 7.2832 56.0496 8.10938L55.0652 9.65625C53.2986 9.05859 52.0418 7.8457 51.3563 6.35156C50.6531 8.04785 49.326 9.40137 47.4363 10.0781L46.4168 8.53125C48.9656 7.65234 50.3191 5.50781 50.3191 3.41602V3.29297H47.0145V1.71094H55.5926V3.29297H52.3055V3.39844ZM67.2912 3.20508C67.2912 5.20898 68.592 7.08984 71.0353 7.86328L69.9806 9.39258C68.2668 8.8125 67.0363 7.65234 66.3595 6.17578C65.6564 7.86328 64.3732 9.19043 62.5451 9.83203L61.4904 8.30273C64.0568 7.40625 65.3224 5.29688 65.34 3.0293V1.51758H67.2912V3.20508ZM74.1994 0.673828V4.54102H76.4142V6.1582H74.1994V10.1836H72.2482V0.673828H74.1994ZM69.0314 10.5352C72.3185 10.5176 74.34 11.6426 74.3576 13.5234C74.34 15.4395 72.3185 16.5469 69.0314 16.5469C65.7091 16.5469 63.6525 15.4395 63.6525 13.5234C63.6525 11.6426 65.7091 10.5176 69.0314 10.5352ZM69.0314 12.0645C66.8517 12.0645 65.6037 12.5918 65.6037 13.5234C65.6037 14.5078 66.8517 15 69.0314 15C71.2111 15 72.424 14.5078 72.424 13.5234C72.424 12.5918 71.2111 12.0645 69.0314 12.0645ZM82.6988 3.39844C82.6988 5.33203 83.982 7.2832 86.4429 8.10938L85.4585 9.62109C83.6831 9.04102 82.4263 7.83691 81.732 6.35156C81.0376 8.0127 79.7105 9.34863 77.8296 9.97266L76.8277 8.42578C79.3589 7.59961 80.7124 5.49023 80.7124 3.41602V3.20508H77.4077V1.64062H85.9859V3.20508H82.6988V3.39844ZM90.1695 10.9043V16.5645H88.2183V12.4688H79.3413V10.9043H90.1695ZM90.1695 0.673828V10.1484H88.2183V6.21094H85.5113V4.61133H88.2183V0.673828H90.1695ZM99.2841 1.57031C102.641 1.57031 105.208 3.3457 105.208 6.05273C105.208 8.79492 102.641 10.5703 99.2841 10.5703C95.9442 10.5703 93.3778 8.79492 93.3954 6.05273C93.3778 3.3457 95.9442 1.57031 99.2841 1.57031ZM99.2841 3.15234C96.9813 3.13477 95.2763 4.29492 95.2763 6.05273C95.2763 7.8457 96.9813 8.9707 99.2841 8.9707C101.604 8.9707 103.292 7.8457 103.292 6.05273C103.292 4.29492 101.604 3.13477 99.2841 3.15234ZM106.579 12.9609V14.5605H92.0595V12.9609H106.579ZM121.776 13.1016V14.7188H107.256V13.1016H113.514V10.5176H108.979V5.31445H118.119V3.3457H108.944V1.76367H120.053V6.86133H110.93V8.91797H120.422V10.5176H115.448V13.1016H121.776ZM140.145 2.80078V4.38281H127.015V2.80078H132.622V0.884766H134.556V2.80078H140.145ZM140.884 13.2773V14.8594H126.364V13.2773H132.622V11.3262C129.871 11.1064 128.21 10.0078 128.228 8.25C128.21 6.33398 130.267 5.19141 133.589 5.19141C136.858 5.19141 138.933 6.33398 138.933 8.25C138.933 9.99902 137.263 11.0977 134.556 11.3086V13.2773H140.884ZM133.589 6.7207C131.427 6.73828 130.214 7.24805 130.231 8.25C130.214 9.26953 131.427 9.7793 133.589 9.79688C135.716 9.7793 136.929 9.26953 136.929 8.25C136.929 7.24805 135.716 6.73828 133.589 6.7207ZM156.01 7.54688V8.98828H149.752V10.1484H154.235V13.875H145.2V14.9648H154.674V16.4238H143.284V12.5391H152.319V11.5547H143.266V10.1484H147.819V8.98828H141.596V7.54688H156.01ZM149.752 0.638672V1.97461H154.621V3.43359H149.963C150.341 4.55859 152.187 5.40234 155.36 5.56055L154.78 7.01953C151.932 6.84375 149.787 6.07031 148.785 4.78711C147.784 6.07031 145.648 6.84375 142.774 7.01953L142.229 5.56055C145.367 5.40234 147.212 4.55859 147.625 3.43359H142.985V1.97461H147.819V0.638672H149.752ZM169.203 0.673828V7.00195H171.646V8.61914H169.203V16.5645H167.269V0.673828H169.203ZM166.039 3.11719V4.68164H156.67V3.11719H160.431V0.902344H162.383V3.11719H166.039ZM161.416 5.71875C163.701 5.71875 165.406 7.26562 165.406 9.46289C165.406 11.6602 163.701 13.1895 161.416 13.1895C159.095 13.1895 157.39 11.6602 157.408 9.46289C157.39 7.26562 159.095 5.71875 161.416 5.71875ZM161.416 7.31836C160.168 7.31836 159.271 8.16211 159.271 9.46289C159.271 10.7637 160.168 11.5898 161.416 11.5723C162.629 11.5898 163.525 10.7637 163.543 9.46289C163.525 8.16211 162.629 7.31836 161.416 7.31836ZM177.773 11.0098C177.755 12.3457 178.37 13.7344 179.741 14.6309C181.112 13.6729 181.728 12.1963 181.745 11.0098V10.1836H183.661V11.0098C183.661 12.6445 184.628 14.2441 186.755 14.9121L185.771 16.3535C184.241 15.8174 183.213 14.8066 182.677 13.541C182.149 14.7891 181.2 15.9141 179.741 16.4941C178.265 15.9492 177.324 14.877 176.806 13.5938C176.234 14.8154 175.232 15.8262 173.765 16.3535L172.815 14.9121C174.872 14.209 175.856 12.5566 175.874 11.0098V10.1836H177.773V11.0098ZM176.366 1.48242C177.623 1.48242 178.731 1.93945 179.495 2.71289H183.31V0.673828H185.261V9.63867H183.31V7.81055H179.53C178.774 8.60156 177.649 9.07617 176.366 9.07617C173.958 9.07617 172.165 7.49414 172.165 5.29688C172.165 3.08203 173.958 1.48242 176.366 1.48242ZM176.366 3.11719C175.03 3.11719 174.046 3.97852 174.046 5.29688C174.046 6.61523 175.03 7.44141 176.366 7.44141C177.667 7.44141 178.651 6.61523 178.651 5.29688C178.651 3.97852 177.667 3.11719 176.366 3.11719ZM180.392 4.27734C180.48 4.59375 180.532 4.93652 180.532 5.29688C180.532 5.62207 180.488 5.92969 180.409 6.22852H183.31V4.27734H180.392ZM190.825 10.2012V11.7129H197.821V10.2012H199.772V16.3711H188.891V10.2012H190.825ZM190.825 14.8242H197.821V13.207H190.825V14.8242ZM201.635 7.70508V9.30469H187.151V7.70508H201.635ZM195.395 1.44727C195.395 3.15234 197.575 4.94531 200.862 5.33203L200.176 6.87891C197.513 6.51855 195.413 5.34082 194.393 3.73242C193.365 5.34961 191.255 6.51855 188.61 6.87891L187.889 5.33203C191.211 4.92773 193.373 3.20508 193.391 1.44727V0.849609H195.395V1.44727ZM215.601 0.673828V16.5645H213.668V0.673828H215.601ZM205.195 2.2207V10.9043C207.428 10.8691 209.801 10.667 212.244 10.1836L212.49 11.8184C209.695 12.3984 207.094 12.5742 204.633 12.5742H203.261V2.2207H205.195ZM229.989 0.673828V6.70312H232.433V8.30273H229.989V16.582H228.038V0.673828H229.989ZM225.63 2.18555V3.76758H220.146V11.0625C222.615 11.0625 224.567 10.9395 226.755 10.5527L226.984 12.2051C224.523 12.627 222.378 12.6973 219.513 12.6973H218.194V2.18555H225.63ZM234.674 15.1406C233.918 15.1406 233.303 14.5254 233.303 13.7695C233.303 13.0312 233.918 12.416 234.674 12.416C235.395 12.416 236.028 13.0312 236.028 13.7695C236.028 14.5254 235.395 15.1406 234.674 15.1406ZM1.47656 35.1484C1.47656 31.8438 2.46094 29.084 4.11328 26.7285H6.22266C5.00977 28.4688 3.79688 32.002 3.79688 35.1484C3.79688 38.2949 5.00977 41.8281 6.22266 43.5859H4.11328C2.46094 41.2129 1.47656 38.4707 1.47656 35.1484ZM13.3685 27.502V29.0488H9.29039V31.7734H12.7005V33.2852H9.29039V36.3613C11.18 36.3438 12.4808 36.2559 14.0365 35.9922L14.2123 37.5566C12.3841 37.9082 10.8724 37.9434 8.46422 37.9434H7.42711V27.502H13.3685ZM20.6107 25.6738V41.5645H18.7123V25.6738H20.6107ZM17.2709 25.9902V40.791H15.4427V33.127H13.474V31.5449H15.4427V25.9902H17.2709ZM30.3054 27.8535C30.3054 30.3145 32.7136 32.7754 36.0359 33.3555L35.157 34.9902C32.4939 34.4277 30.3142 32.8193 29.2859 30.6836C28.2312 32.8018 26.0515 34.4189 23.3972 34.9902L22.5359 33.3555C25.823 32.7578 28.2136 30.2969 28.2312 27.8535V26.6758H30.3054V27.8535ZM36.6159 37.9258V39.543H22.0964V37.9258H36.6159ZM50.213 34.0059V35.5527H39.0684V26.9219H50.0723V28.5039H41.0548V30.4199H49.7032V31.9492H41.0548V34.0059H50.213ZM51.8126 38.0312V39.6309H37.293V38.0312H51.8126ZM65.7084 25.6738V41.582H63.7397V25.6738H65.7084ZM57.1479 26.834C59.5385 26.834 61.2788 29.0137 61.2963 32.4414C61.2788 35.9043 59.5385 38.0664 57.1479 38.0664C54.7397 38.0664 52.9995 35.9043 52.9995 32.4414C52.9995 29.0137 54.7397 26.834 57.1479 26.834ZM57.1479 28.5918C55.7944 28.5918 54.8803 30.0156 54.8803 32.4414C54.8803 34.8848 55.7944 36.3086 57.1479 36.3086C58.4838 36.3086 59.3979 34.8848 59.3979 32.4414C59.3979 30.0156 58.4838 28.5918 57.1479 28.5918ZM82.2059 37.9609V39.5781H67.6863V37.9609H82.2059ZM80.5359 26.9746V34.6914H69.2859V26.9746H80.5359ZM71.202 28.5391V33.1621H78.6023V28.5391H71.202ZM97.4025 38.1016V39.7188H82.883V38.1016H89.1408V35.5176H84.6056V30.3145H93.7462V28.3457H84.5705V26.7637H95.6798V31.8613H86.5568V33.918H96.049V35.5176H91.0744V38.1016H97.4025ZM115.192 25.6738V33.7773H113.259V25.6738H115.192ZM115.227 34.5156V38.6465H106.632V39.877H115.702V41.4238H104.716V37.1875H113.276V36.0273H104.681V34.5156H115.227ZM107.915 27.291C107.915 29.3125 109.251 31.2109 111.765 31.9668L110.815 33.4785C108.97 32.916 107.651 31.7295 106.931 30.209C106.21 31.8613 104.856 33.1533 102.958 33.7598L101.974 32.2305C104.54 31.4043 105.893 29.3652 105.893 27.291V26.0605H107.915V27.291ZM130.864 25.6738V41.5645H129V25.6738H130.864ZM127.629 25.9727V40.791H125.783V32.793H123.498V31.2109H125.783V25.9727H127.629ZM122.092 30.0156C122.092 32.7051 123.059 35.3945 125.326 36.6953L124.166 38.1367C122.698 37.2578 121.723 35.7461 121.178 33.9355C120.615 35.8955 119.605 37.5654 118.102 38.5059L116.906 37.0469C119.209 35.6582 120.211 32.7754 120.211 30.0156V28.9609H117.451V27.3789H124.658V28.9609H122.092V30.0156ZM150.077 27.8008V29.3828H136.946V27.8008H142.554V25.8848H144.487V27.8008H150.077ZM150.815 38.2773V39.8594H136.296V38.2773H142.554V36.3262C139.803 36.1064 138.142 35.0078 138.159 33.25C138.142 31.334 140.198 30.1914 143.52 30.1914C146.79 30.1914 148.864 31.334 148.864 33.25C148.864 34.999 147.194 36.0977 144.487 36.3086V38.2773H150.815ZM143.52 31.7207C141.358 31.7383 140.145 32.248 140.163 33.25C140.145 34.2695 141.358 34.7793 143.52 34.7969C145.647 34.7793 146.86 34.2695 146.86 33.25C146.86 32.248 145.647 31.7383 143.52 31.7207ZM165.942 32.5469V33.9883H159.684V35.1484H164.166V38.875H155.131V39.9648H164.606V41.4238H153.215V37.5391H162.25V36.5547H153.198V35.1484H157.75V33.9883H151.528V32.5469H165.942ZM159.684 25.6387V26.9746H164.553V28.4336H159.895C160.273 29.5586 162.118 30.4023 165.291 30.5605L164.711 32.0195C161.864 31.8438 159.719 31.0703 158.717 29.7871C157.715 31.0703 155.579 31.8438 152.705 32.0195L152.16 30.5605C155.298 30.4023 157.144 29.5586 157.557 28.4336H152.916V26.9746H157.75V25.6387H159.684ZM169.256 27.2734L172.05 31.9492H172.156L174.986 27.2734H177.588L173.668 33.6367L177.658 40H175.004L172.156 35.3594H172.05L169.203 40H166.566L170.591 33.6367L166.619 27.2734H169.256ZM182.958 35.1484C182.958 38.4707 181.974 41.2129 180.321 43.5859H178.212C179.425 41.8281 180.638 38.2949 180.638 35.1484C180.638 32.002 179.425 28.4688 178.212 26.7285H180.321C181.974 29.084 182.958 31.8438 182.958 35.1484Z" fill="#202020"/>
</svg>
